<svg width="20" height="20" viewBox="0 0 20 20" fill="none" xmlns="http://www.w3.org/2000/svg">
<path d="M19 19L13 13" stroke="#6F7A82" stroke-width="2" stroke-linecap="round" stroke-linejoin="round"/>
<path d="M1.291 6.00304C1.64181 4.82727 2.29551 3.76436 3.18658 2.92086C4.07765 2.07736 5.17477 1.48289 6.368 1.19704C8.04273 0.791702 9.80804 1.01637 11.3279 1.82828C12.8477 2.64019 14.0158 3.98263 14.61 5.60004" stroke="#6F7A82" stroke-width="2" stroke-linecap="round" stroke-linejoin="round"/>
<path d="M15 2V6H11" stroke="#6F7A82" stroke-width="2" stroke-linecap="round" stroke-linejoin="round"/>
<path d="M14.705 10.0049C14.3532 11.1788 13.6995 12.2398 12.809 13.0818C11.9186 13.9238 10.8227 14.5173 9.631 14.8029C7.95641 15.2079 6.19134 14.9831 4.67175 14.1712C3.15216 13.3594 1.98414 12.0171 1.39 10.3999" stroke="#6F7A82" stroke-width="2" stroke-linecap="round" stroke-linejoin="round"/>
<path d="M1 14V10H5" stroke="#6F7A82" stroke-width="2" stroke-linecap="round" stroke-linejoin="round"/>
</svg>
