<svg width="33" height="39" viewBox="0 0 33 39" fill="none" xmlns="http://www.w3.org/2000/svg">
<path fill-rule="evenodd" clip-rule="evenodd" d="M16.6579 25.3688H16.0008C11.4893 25.3688 7.83205 21.7566 7.83205 17.3015V8.62206C7.83205 4.16689 11.4893 0.554688 16.0008 0.554688H16.6579C21.1694 0.554688 24.8285 4.16689 24.8285 8.62206V17.3015C24.8285 21.7566 21.1694 25.3688 16.6579 25.3688ZM28.651 17.0443C28.651 16.0492 29.4658 15.2475 30.4684 15.2475C31.4728 15.2475 32.2876 16.0511 32.2876 17.0443C32.2876 25.1248 26.092 31.7953 18.1505 32.6927V36.3068C18.149 36.5444 18.1007 36.7794 18.0084 36.9983C17.916 37.2172 17.7814 37.4158 17.6123 37.5826C17.4432 37.7495 17.2428 37.8814 17.0227 37.9708C16.8025 38.0601 16.5669 38.1053 16.3293 38.1035C16.092 38.105 15.8567 38.0597 15.6369 37.9702C15.4171 37.8807 15.2171 37.7487 15.0483 37.5818C14.8795 37.415 14.7453 37.2165 14.6532 36.9977C14.5612 36.7789 14.5132 36.5442 14.512 36.3068V32.6927C6.56477 31.7953 0.371094 25.1248 0.371094 17.0443C0.371094 16.0492 1.1859 15.2475 2.19033 15.2475C3.19289 15.2475 4.0077 16.0511 4.0077 17.0443C4.0077 23.7524 9.53489 29.2101 16.3312 29.2101C23.1238 29.2101 28.651 23.7524 28.651 17.0443Z" fill="white"/>
</svg>
