<svg width="18" height="18" viewBox="0 0 18 18" fill="none" xmlns="http://www.w3.org/2000/svg">
<g clip-path="url(#clip0_2115_64377)">
<g clip-path="url(#clip1_2115_64377)">
<path d="M2.70039 1.80078H6.30039L8.10039 6.30078L5.85039 7.65078C6.81425 9.60516 8.39601 11.1869 10.3504 12.1508L11.7004 9.90078L16.2004 11.7008V15.3008C16.2004 15.7782 16.0107 16.236 15.6732 16.5736C15.3356 16.9111 14.8778 17.1008 14.4004 17.1008C10.8897 16.8874 7.57853 15.3966 5.09154 12.9096C2.60454 10.4226 1.11374 7.11144 0.900391 3.60078C0.900391 3.12339 1.09003 2.66555 1.4276 2.32799C1.76516 1.99042 2.223 1.80078 2.70039 1.80078Z" stroke="#545C62" stroke-width="1.5" stroke-linecap="round" stroke-linejoin="round"/>
<path d="M11.7002 4.5C12.1776 4.5 12.6354 4.68964 12.973 5.02721C13.3106 5.36477 13.5002 5.82261 13.5002 6.3" stroke="#545C62" stroke-width="1.5" stroke-linecap="round" stroke-linejoin="round"/>
<path d="M11.7002 0.898438C13.1324 0.898438 14.5059 1.46736 15.5186 2.48006C16.5313 3.49276 17.1002 4.86627 17.1002 6.29844" stroke="#545C62" stroke-width="1.5" stroke-linecap="round" stroke-linejoin="round"/>
</g>
</g>
<defs>
<clipPath id="clip0_2115_64377">
<rect width="18" height="18" fill="white"/>
</clipPath>
<clipPath id="clip1_2115_64377">
<rect width="21.6" height="21.6" fill="white" transform="translate(-1.7998 -1.80078)"/>
</clipPath>
</defs>
</svg>
