<svg width="16" height="17" viewBox="0 0 16 17" fill="none" xmlns="http://www.w3.org/2000/svg">
<path d="M8.96991 5.39834C9.11078 5.26615 9.29824 5.19307 9.49273 5.19452C9.68722 5.19597 9.87354 5.27184 10.0124 5.40611C10.1512 5.54039 10.2317 5.72258 10.2368 5.91422C10.2419 6.10587 10.1713 6.29199 10.0399 6.43331L6.04991 11.3519C5.9813 11.4247 5.8985 11.4832 5.80645 11.5238C5.71439 11.5643 5.61498 11.5862 5.51416 11.588C5.41334 11.5899 5.31318 11.5717 5.21967 11.5345C5.12616 11.4973 5.04121 11.4419 4.96991 11.3716L2.32391 8.76348C2.25023 8.6958 2.19112 8.61419 2.15013 8.5235C2.10914 8.43282 2.0871 8.33493 2.08532 8.23567C2.08355 8.1364 2.10207 8.03781 2.13979 7.94576C2.17751 7.8537 2.23366 7.77008 2.30488 7.69988C2.37609 7.62969 2.46093 7.57434 2.55432 7.53716C2.6477 7.49998 2.74773 7.48172 2.84844 7.48347C2.94914 7.48522 3.04845 7.50695 3.14045 7.54736C3.23245 7.58776 3.31525 7.64602 3.38391 7.71865L5.47791 9.7817L8.94991 5.42002C8.95614 5.41241 8.96282 5.40517 8.96991 5.39834ZM8.04991 10.4648L8.96991 11.3716C9.0412 11.4417 9.12608 11.497 9.2195 11.5341C9.31292 11.5712 9.41296 11.5894 9.51366 11.5875C9.61436 11.5857 9.71365 11.5639 9.80561 11.5234C9.89757 11.4829 9.98032 11.4246 10.0489 11.3519L14.0409 6.43331C14.1126 6.36353 14.1693 6.28021 14.2077 6.18834C14.246 6.09648 14.2651 5.99794 14.2639 5.89862C14.2628 5.79929 14.2413 5.70122 14.2008 5.61026C14.1603 5.5193 14.1017 5.43731 14.0283 5.36919C13.955 5.30107 13.8685 5.24822 13.7739 5.21379C13.6794 5.17937 13.5788 5.16407 13.4782 5.16881C13.3775 5.17356 13.2789 5.19825 13.1881 5.24141C13.0973 5.28457 13.0163 5.34532 12.9499 5.42002L9.47691 9.7817L8.99191 9.30265L8.04891 10.4648H8.04991Z" fill="#4582C4"/>
</svg>
