<svg width="22" height="22" viewBox="0 0 22 22" fill="none" xmlns="http://www.w3.org/2000/svg">
<g clip-path="url(#clip0_2115_64389)">
<path d="M19.1002 12.7984L16.4002 10.0984H10.1002C9.8615 10.0984 9.63258 10.0036 9.4638 9.83483C9.29502 9.66605 9.2002 9.43713 9.2002 9.19844V3.79844C9.2002 3.55974 9.29502 3.33082 9.4638 3.16204C9.63258 2.99326 9.8615 2.89844 10.1002 2.89844H18.2002C18.4389 2.89844 18.6678 2.99326 18.8366 3.16204C19.0054 3.33082 19.1002 3.55974 19.1002 3.79844V12.7984Z" stroke="#545C62" stroke-width="1.5" stroke-linecap="round" stroke-linejoin="round"/>
<path d="M12.8004 13.6992V15.4992C12.8004 15.7379 12.7056 15.9668 12.5368 16.1356C12.368 16.3044 12.1391 16.3992 11.9004 16.3992H5.60039L2.90039 19.0992V10.0992C2.90039 9.86052 2.99521 9.63161 3.16399 9.46282C3.33278 9.29404 3.5617 9.19922 3.80039 9.19922H5.60039" stroke="#545C62" stroke-width="1.5" stroke-linecap="round" stroke-linejoin="round"/>
</g>
<defs>
<clipPath id="clip0_2115_64389">
<rect width="21.6" height="21.6" fill="white" transform="translate(0.200195 0.199219)"/>
</clipPath>
</defs>
</svg>
