<svg width="19" height="18" viewBox="0 0 19 18" fill="none" xmlns="http://www.w3.org/2000/svg">
<path d="M14.824 7.5V9C14.824 10.3924 14.2709 11.7277 13.2863 12.7123C12.3017 13.6969 10.9664 14.25 9.57397 14.25M9.57397 14.25C8.18159 14.25 6.84623 13.6969 5.86166 12.7123C4.8771 11.7277 4.32397 10.3924 4.32397 9V7.5M9.57397 14.25V17.25M6.57397 17.25H12.574M9.57397 0.75C8.97724 0.75 8.40494 0.987053 7.98298 1.40901C7.56103 1.83097 7.32397 2.40326 7.32397 3V9C7.32397 9.59674 7.56103 10.169 7.98298 10.591C8.40494 11.0129 8.97724 11.25 9.57397 11.25C10.1707 11.25 10.743 11.0129 11.165 10.591C11.5869 10.169 11.824 9.59674 11.824 9V3C11.824 2.40326 11.5869 1.83097 11.165 1.40901C10.743 0.987053 10.1707 0.75 9.57397 0.75Z" stroke="#6F7A82" stroke-width="1.5" stroke-linecap="round" stroke-linejoin="round"/>
</svg>
