<svg width="35" height="34" viewBox="0 0 35 34" fill="none" xmlns="http://www.w3.org/2000/svg">
<path d="M30.926 3.66061C30.5781 3.30452 30.1397 3.05001 29.658 2.92445C29.1762 2.7989 28.6693 2.80705 28.1919 2.94803L5.38779 9.57803C4.8901 9.71442 4.44149 9.98958 4.09431 10.3714C3.74714 10.7532 3.51574 11.2258 3.42712 11.7342C3.22595 12.7967 3.93004 14.1482 4.84804 14.712L11.9781 19.0952C12.3335 19.3136 12.7523 19.4053 13.1665 19.3554C13.5806 19.3055 13.9656 19.117 14.259 18.8204L22.4232 10.6051C22.5203 10.5038 22.6368 10.4232 22.7659 10.3681C22.8949 10.313 23.0337 10.2847 23.174 10.2847C23.3143 10.2847 23.4532 10.313 23.5822 10.3681C23.7113 10.4232 23.8278 10.5038 23.9249 10.6051C24.3357 11.0188 24.3357 11.6889 23.9249 12.1167L15.7465 20.3334C15.1401 20.9425 15.0268 21.8917 15.473 22.6284L19.8293 29.8293C20.3393 30.6849 21.2176 31.1694 22.181 31.1694C22.2943 31.1694 22.4218 31.1694 22.5365 31.1553C23.6415 31.0136 24.5199 30.2571 24.8457 29.1861L31.6075 6.4132C31.905 5.44278 31.6358 4.38736 30.9275 3.66061H30.926Z" fill="white"/>
</svg>
