<svg width="19" height="18" viewBox="0 0 19 18" fill="none" xmlns="http://www.w3.org/2000/svg">
<path d="M8.07388 9.75095C8.39597 10.1815 8.8069 10.5378 9.27879 10.7957C9.75069 11.0535 10.2725 11.2068 10.8089 11.2452C11.3452 11.2836 11.8836 11.2062 12.3874 11.0183C12.8912 10.8303 13.3487 10.5363 13.7289 10.156L15.9789 7.90595C16.662 7.19869 17.04 6.25143 17.0314 5.2682C17.0229 4.28496 16.6285 3.34441 15.9332 2.64913C15.2379 1.95385 14.2974 1.55947 13.3141 1.55092C12.3309 1.54238 11.3836 1.92036 10.6764 2.60345L9.38638 3.88595M11.0739 8.25095C10.7518 7.82035 10.3409 7.46406 9.86897 7.20625C9.39707 6.94843 8.87525 6.79511 8.33889 6.7567C7.80253 6.71829 7.26419 6.79568 6.76037 6.98361C6.25655 7.17155 5.79904 7.46565 5.41888 7.84595L3.16888 10.096C2.48579 10.8032 2.10781 11.7505 2.11635 12.7337C2.1249 13.7169 2.51928 14.6575 3.21456 15.3528C3.90984 16.0481 4.85039 16.4424 5.83363 16.451C6.81686 16.4595 7.76412 16.0815 8.47138 15.3985L9.75388 14.116" stroke="#6F7A82" stroke-width="1.5" stroke-linecap="round" stroke-linejoin="round"/>
</svg>
