<svg width="253" height="192" viewBox="0 0 253 192" fill="none" xmlns="http://www.w3.org/2000/svg">
<path d="M109 190.821C158.101 190.821 197.905 150.767 197.905 101.358C197.905 51.9485 158.101 11.8945 109 11.8945C59.8998 11.8945 20.096 51.9485 20.096 101.358C20.096 150.767 59.8998 190.821 109 190.821Z" fill="#F3F5F6" stroke="#DCE0E3" stroke-width="2" stroke-miterlimit="10"/>
<path d="M219.216 109.992C221.988 107.444 222.181 103.117 219.649 100.328C217.116 97.5397 212.817 97.3449 210.045 99.8934C207.274 102.442 207.08 106.769 209.613 109.557C212.145 112.346 216.445 112.541 219.216 109.992Z" fill="#E9F1F9"/>
<path d="M37.7571 33.3871C40.1059 32.6188 41.3911 30.08 40.6277 27.7164C39.8643 25.3528 37.3413 24.0595 34.9925 24.8278C32.6436 25.596 31.3584 28.1348 32.1219 30.4984C32.8853 32.862 35.4083 34.1553 37.7571 33.3871Z" fill="#E9F1F9"/>
<path d="M10.233 52.8159C11.8302 52.2935 12.7042 50.567 12.185 48.9598C11.6659 47.3526 9.95028 46.4731 8.35308 46.9955C6.75588 47.5179 5.88193 49.2443 6.40106 50.8516C6.9202 52.4588 8.63582 53.3382 10.233 52.8159Z" fill="#E9F1F9"/>
<path d="M212.937 47.3483C214.103 46.2753 214.185 44.4535 213.119 43.2793C212.052 42.1051 210.242 42.0231 209.075 43.0961C207.908 44.1692 207.827 45.9909 208.893 47.1652C209.959 48.3394 211.77 48.4214 212.937 47.3483Z" fill="#E9F1F9"/>
<path d="M140.731 5.2563C141.534 4.51825 141.59 3.26524 140.856 2.45761C140.123 1.64998 138.878 1.59357 138.075 2.33162C137.272 3.06967 137.216 4.32268 137.95 5.13031C138.683 5.93794 139.928 5.99435 140.731 5.2563Z" fill="#E9F1F9"/>
<path d="M206.216 34.8661C206.216 41.3573 203.359 47.0696 199.465 51.7433C199.205 52.0029 198.686 52.5222 198.426 52.7819C194.012 56.9363 188.04 59.2731 181.809 59.2731C176.875 59.2731 171.942 57.7152 167.788 55.1187C166.749 54.3398 165.71 53.3012 164.412 52.5222C159.998 48.3679 156.882 42.1363 156.882 35.1258C156.882 21.624 167.788 10.7188 181.289 10.7188C195.051 10.7188 206.216 21.624 206.216 34.8661Z" fill="#E8EAEC"/>
<path d="M199.724 47.594C199.724 51.2291 196.868 54.0852 192.973 54.0852H91.4504C87.5556 54.0852 84.4398 50.9694 84.4398 47.0747V24.2256C84.4398 20.5905 87.296 17.7344 91.1907 17.7344H193.233C196.868 17.7344 199.984 20.5905 199.984 24.2256L199.724 47.594Z" fill="white" stroke="#DCE0E3" stroke-width="2" stroke-miterlimit="10"/>
<path d="M148.314 32.5331H97.6824C97.1631 32.5331 96.6438 32.2734 96.6438 31.7541V28.6383C96.6438 28.3787 97.1631 27.8594 97.6824 27.8594H148.314C148.574 27.8594 149.353 28.119 149.353 28.6383V31.7541C149.353 32.2734 148.833 32.5331 148.314 32.5331Z" fill="#F3F5F6" stroke="#DCE0E3" stroke-width="2" stroke-miterlimit="10"/>
<path d="M128.84 44.994H97.6824C97.1631 44.994 96.6438 44.7343 96.6438 44.215V41.0993C96.6438 40.8396 97.1631 40.3203 97.6824 40.3203H128.84C129.1 40.3203 129.879 40.58 129.879 41.0993V44.215C129.619 44.4747 129.36 44.994 128.84 44.994Z" fill="#F3F5F6" stroke="#DCE0E3" stroke-width="2" stroke-miterlimit="10"/>
<path d="M206.216 34.8721C206.216 42.1423 203.1 48.3738 198.167 53.0475C193.753 57.2019 187.781 59.5387 181.549 59.5387C176.616 59.5387 171.682 57.9808 167.528 55.3844C161.037 51.23 156.882 43.7002 156.882 35.3914C156.882 21.8896 167.788 10.9844 181.289 10.9844C195.051 10.9844 206.216 21.63 206.216 34.8721Z" fill="#F3F5F6" stroke="#DCE0E3" stroke-width="2" stroke-miterlimit="10"/>
<path d="M199.724 52.009C199.465 52.2686 198.945 52.7879 198.686 53.0476C194.272 57.202 188.3 59.5388 182.068 59.5388C177.135 59.5388 172.202 57.9809 168.047 55.3844C167.009 54.6055 165.97 53.5669 164.672 52.7879C165.191 52.009 166.23 51.4897 168.047 50.7107L168.826 50.4511C170.384 49.9318 172.461 49.1528 175.058 47.8546C175.317 47.5949 175.837 47.5949 176.096 47.0756C176.356 46.816 176.356 46.816 176.356 46.5563C176.616 46.2967 176.616 45.7774 176.616 45.5178V40.5844C176.356 40.3248 176.356 40.3248 176.356 40.3248C176.096 39.8055 175.577 39.0265 175.577 38.2476L175.317 37.9879C174.019 38.2476 174.279 36.9493 173.76 34.3528C173.5 33.3142 173.76 33.0546 174.279 33.0546L174.538 32.5353C173.5 30.4581 173.24 28.6406 173.24 27.0827C173.24 24.4862 174.279 22.9283 175.837 22.1493C174.798 20.3318 174.798 19.8125 174.798 19.8125C174.798 19.8125 179.731 20.5914 181.549 20.3318C183.626 20.0721 187.261 20.5914 188.559 23.4476C190.637 24.2265 191.416 25.5248 191.935 27.0827C192.195 29.4195 190.896 32.016 190.637 33.0546V33.3142C190.896 33.5739 190.896 33.5739 190.896 34.6125C190.637 37.209 190.637 38.5072 189.338 38.2476L188.04 40.3248C188.04 40.5844 188.04 40.5844 187.781 40.5844C187.781 40.8441 187.781 41.8827 187.781 45.7774C187.781 46.0371 188.04 46.816 188.04 47.0756C188.3 47.3353 188.3 47.3353 188.3 47.3353C188.559 47.5949 188.819 47.8546 189.338 47.8546C192.195 49.1528 194.272 49.9318 196.089 50.4511C197.907 51.23 198.945 51.4897 199.724 52.009Z" fill="white"/>
<path d="M199.724 52.0036C199.465 52.2633 198.945 52.7826 198.686 53.0422C194.272 57.1966 188.3 59.5335 182.068 59.5335C177.135 59.5335 172.202 57.9756 168.047 55.3791C167.009 54.6001 165.97 53.5615 164.672 52.7826C165.191 52.0036 166.23 51.4843 168.047 50.7054L168.826 50.4457C170.384 49.9265 172.461 49.1475 175.058 47.8493C175.317 47.5896 175.837 47.5896 176.096 47.0703C177.654 49.1475 179.991 50.4457 182.847 50.4457C185.703 50.4457 187.781 49.1475 189.338 47.33C189.598 47.5896 189.858 47.8493 190.377 47.8493C193.233 49.1475 195.31 49.9265 197.128 50.4457C198.945 50.965 199.205 51.4843 199.724 52.0036Z" fill="#DCE0E3"/>
<path d="M190.377 32.5353C190.637 32.016 190.117 31.2371 190.117 30.4581C190.117 30.1985 189.858 30.1985 189.858 30.1985C188.819 28.1213 186.482 27.602 184.665 27.3423C179.212 27.0827 178.693 28.1213 177.135 26.5634C177.654 27.3423 177.654 28.6406 176.875 30.1985C176.356 31.2371 175.317 31.7564 174.019 32.2757C171.423 26.823 172.981 23.1879 175.058 22.1493C174.019 20.3318 174.019 19.8125 174.019 19.8125C174.019 19.8125 178.953 20.5914 180.77 20.3318C182.847 20.0721 186.482 20.5914 187.781 23.4476C189.858 24.2265 190.637 25.5248 191.156 27.0827C191.935 29.1599 190.896 31.7564 190.377 32.5353Z" fill="#A1ADB5"/>
<path d="M244.896 164.61C244.896 168.245 242.04 171.101 238.145 171.101H136.623C132.728 171.101 129.612 167.985 129.612 164.09V141.241C129.612 137.606 132.468 134.75 136.363 134.75H238.405C242.04 134.75 245.156 137.606 245.156 141.241L244.896 164.61Z" fill="white" stroke="#DCE0E3" stroke-width="2" stroke-miterlimit="10"/>
<path d="M193.486 149.549H142.855C142.335 149.549 141.816 149.289 141.816 148.77V145.654C141.816 145.394 142.335 144.875 142.855 144.875H193.486C193.746 144.875 194.525 145.135 194.525 145.654V148.77C194.525 149.289 194.006 149.549 193.486 149.549Z" fill="#F3F5F6" stroke="#DCE0E3" stroke-width="2" stroke-miterlimit="10"/>
<path d="M174.013 162.01H142.855C142.335 162.01 141.816 161.75 141.816 161.231V158.115C141.816 157.855 142.335 157.336 142.855 157.336H174.013C174.272 157.336 175.051 157.596 175.051 158.115V161.231C174.792 161.49 174.532 162.01 174.013 162.01Z" fill="#F3F5F6" stroke="#DCE0E3" stroke-width="2" stroke-miterlimit="10"/>
<path d="M251.388 151.888C251.388 159.158 248.272 165.389 243.339 170.063C238.925 174.218 232.953 176.554 226.721 176.554C221.788 176.554 216.855 174.996 212.7 172.4C206.209 168.246 202.055 160.716 202.055 152.407C202.055 138.905 212.96 128 226.462 128C240.223 128 251.388 138.646 251.388 151.888Z" fill="#F3F5F6" stroke="#DCE0E3" stroke-width="2" stroke-miterlimit="10"/>
<path d="M244.897 169.025C244.637 169.284 244.118 169.804 243.858 170.063C239.444 174.218 233.472 176.554 227.241 176.554C222.307 176.554 217.374 174.997 213.219 172.4C212.181 171.621 211.142 170.582 209.844 169.804C210.363 169.025 211.402 168.505 213.219 167.726L213.998 167.467C215.556 166.947 217.634 166.168 220.23 164.87C220.49 164.611 221.009 164.611 221.269 164.091C221.528 163.832 221.528 163.832 221.528 163.572C221.788 163.312 221.788 162.793 221.788 162.533V157.6C221.528 157.34 221.528 157.34 221.528 157.34C221.269 156.821 220.749 156.042 220.749 155.263L220.49 155.004C219.191 155.263 219.451 153.965 218.932 151.368C218.672 150.33 218.932 150.07 219.451 150.07L219.711 149.551C218.672 147.474 218.412 145.656 218.412 144.098C218.412 141.502 219.451 139.944 221.009 139.165C219.97 137.347 219.97 136.828 219.97 136.828C219.97 136.828 224.904 137.607 226.721 137.347C228.798 137.088 232.433 137.607 233.732 140.463C235.809 141.242 236.588 142.54 237.107 144.098C237.367 146.435 236.069 149.032 235.809 150.07V150.33C236.069 150.59 236.069 150.59 236.069 151.628C235.809 154.225 235.809 155.523 234.511 155.263L233.212 157.34C233.212 157.6 233.212 157.6 232.953 157.6C232.953 157.86 232.953 158.898 232.953 162.793C232.953 163.053 233.212 163.832 233.212 164.091C233.472 164.351 233.472 164.351 233.472 164.351C233.732 164.611 233.991 164.87 234.511 164.87C237.367 166.168 239.444 166.947 241.262 167.467C243.079 168.246 244.118 168.505 244.897 169.025Z" fill="white"/>
<path d="M244.897 169.019C244.637 169.279 244.118 169.798 243.858 170.058C239.444 174.212 233.472 176.549 227.241 176.549C222.307 176.549 217.374 174.991 213.219 172.395C212.181 171.616 211.142 170.577 209.844 169.798C210.363 169.019 211.402 168.5 213.219 167.721L213.998 167.461C215.556 166.942 217.634 166.163 220.23 164.865C220.49 164.605 221.009 164.605 221.269 164.086C222.826 166.163 225.163 167.461 228.019 167.461C230.876 167.461 232.953 166.163 234.511 164.346C234.77 164.605 235.03 164.865 235.549 164.865C238.405 166.163 240.483 166.942 242.3 167.461C244.118 167.981 244.377 168.5 244.897 169.019Z" fill="#DCE0E3"/>
<path d="M235.549 149.551C235.809 149.032 235.29 148.253 235.29 147.474C235.29 147.214 235.03 147.214 235.03 147.214C233.991 145.137 231.655 144.618 229.837 144.358C224.384 144.098 223.865 145.137 222.307 143.579C222.827 144.358 222.827 145.656 222.048 147.214C221.528 148.253 220.49 148.772 219.191 149.291C216.595 143.839 218.153 140.204 220.23 139.165C219.191 137.347 219.191 136.828 219.191 136.828C219.191 136.828 224.125 137.607 225.942 137.347C228.02 137.088 231.655 137.607 232.953 140.463C235.03 141.242 235.809 142.54 236.328 144.098C237.107 146.175 236.069 148.772 235.549 149.551Z" fill="#A1ADB5"/>
<path d="M42.377 115.62C41.0788 116.918 39.5209 117.697 37.963 118.735C34.5876 120.813 30.1735 121.851 25.7595 121.851C21.3455 121.851 17.1911 120.553 13.556 118.735C12.777 118.476 12.5174 118.216 11.9981 117.697C11.9981 117.437 11.9981 117.437 11.9981 117.437C12.5174 115.1 13.556 112.504 15.8928 110.946C16.1525 110.427 16.6718 110.427 16.9314 110.167C15.1139 109.907 14.0753 109.128 13.0367 108.09H18.749C20.3069 110.167 23.163 111.725 26.0191 111.725C28.6156 111.725 30.9525 110.686 32.5104 109.128C32.77 109.128 33.0297 109.128 33.0297 109.128C33.549 109.128 33.549 109.128 34.0683 109.128C35.1069 109.128 36.4051 109.388 37.4437 109.907C39.5209 110.946 40.8191 112.504 42.1174 114.841C42.377 115.1 42.377 115.1 42.377 115.62Z" fill="#DCE0E3"/>
<path d="M136.37 83.6801V110.424C136.37 114.319 132.995 117.434 129.36 117.434H18.2299C14.0755 117.434 10.9597 114.059 10.9597 109.905V83.4204C10.9597 79.2661 14.3352 75.8906 18.2299 75.8906H128.84C132.735 76.1503 136.37 79.2661 136.37 83.6801Z" fill="white" stroke="#DCE0E3" stroke-width="2" stroke-miterlimit="10"/>
<path d="M120.791 91.7343C120.791 92.2536 120.532 92.7729 119.753 92.7729H62.6299C62.1106 92.7729 61.5913 92.2536 61.5913 91.7343V88.3589C61.5913 87.8396 62.1106 87.3203 62.6299 87.3203H120.012C120.532 87.3203 121.051 87.8396 121.051 88.3589V91.7343H120.791Z" fill="#F3F5F6" stroke="#DCE0E3" stroke-width="2" stroke-miterlimit="10"/>
<path d="M97.6825 106.791H62.6299C62.1106 106.791 61.5913 106.271 61.5913 105.752V102.636C61.5913 102.117 62.1106 101.598 62.6299 101.598H97.6825C98.2018 101.598 98.7211 102.117 98.7211 102.636V106.012C98.9808 106.531 98.4615 106.791 97.6825 106.791Z" fill="#F3F5F6" stroke="#DCE0E3" stroke-width="2" stroke-miterlimit="10"/>
<path d="M50.1665 97.9623C50.1665 104.973 47.3103 111.204 42.377 115.618C41.0787 116.917 39.5208 117.696 37.9629 118.734C34.5875 120.811 30.1735 121.85 25.7594 121.85C21.3454 121.85 17.191 120.811 13.5559 118.994C12.777 118.734 12.5173 118.215 11.998 117.955C5.76647 113.801 1.61208 106.271 1.61208 98.2219C1.61208 84.7202 12.5173 74.3342 25.7594 74.3342C39.5208 73.8149 50.1665 84.7202 50.1665 97.9623Z" fill="#F3F5F6" stroke="#DCE0E3" stroke-width="2" stroke-miterlimit="10"/>
<path d="M20.8261 103.153C21.3454 103.413 21.3454 103.932 21.8647 104.192C22.384 104.452 22.384 104.452 22.9033 104.971C23.163 105.231 23.4226 105.231 23.4226 105.231C23.4226 105.231 23.6823 105.231 23.6823 105.49L23.9419 105.75V107.827C23.9419 107.827 23.9419 107.827 23.6823 107.567C23.4226 107.308 23.163 107.308 23.163 107.308C22.6437 107.048 22.6437 107.048 22.1244 106.788C21.8647 106.788 21.8647 106.529 21.6051 106.529C20.5665 105.75 19.7875 104.971 19.7875 104.192C19.7875 104.192 20.3068 103.673 20.8261 103.153ZM41.598 114.578C40.5594 112.501 39.5208 110.943 37.184 109.645C36.1454 109.385 35.1068 108.866 33.8086 108.866C33.2893 108.866 33.0296 108.866 32.77 108.866C32.5103 108.866 32.2507 108.866 32.2507 108.866C30.6928 108.606 30.4331 108.606 30.4331 108.606V105.231C31.4717 104.452 32.5103 103.153 33.2893 102.374C34.0682 101.595 34.5875 100.297 34.8472 98.7393C36.1454 98.4797 36.9244 97.4411 36.9244 95.8832C36.9244 95.3639 36.4051 94.5849 36.4051 94.0656C36.4051 93.806 36.4051 93.5464 36.4051 93.2867C36.4051 93.0271 36.4051 93.0271 36.4051 92.7674C36.4051 92.5078 36.4051 92.5078 36.4051 92.2481C36.1454 91.2095 35.8858 90.1709 35.3665 89.1323C33.5489 86.0165 30.4331 83.6797 26.5384 83.6797C25.7595 83.6797 24.9805 83.9393 24.4612 83.9393C23.6823 83.9393 22.384 84.4586 21.3454 85.4972C21.0858 85.7569 20.8261 85.7569 20.8261 86.0165L20.5665 86.2762C19.5279 87.5744 18.4893 88.8727 17.7103 90.4306C17.191 91.9885 17.191 93.5464 17.4507 95.3639C17.4507 95.3639 17.4507 95.3639 17.4507 95.6235V95.8832C17.4507 96.1428 17.7103 96.1428 17.4507 96.1428C17.4507 96.4025 17.191 96.4025 17.191 96.4025C16.6717 96.6621 16.6717 97.4411 16.9314 98.4797C17.4507 99.7779 18.4893 99.7779 19.5279 100.557C19.5279 100.557 19.2682 100.557 19.2682 100.817L18.2296 101.076C13.2963 102.374 11.7384 106.529 13.8156 109.125C14.5945 109.385 15.8928 110.164 17.7103 110.424C17.191 110.424 16.6717 110.683 16.6717 110.943C14.5945 112.501 13.2963 115.097 12.777 117.434C12.777 117.694 12.777 117.694 12.777 117.694C13.2963 117.953 13.8156 118.473 14.3349 118.732L37.7033 118.213C39.2612 117.434 39.7805 116.655 41.0787 115.617C41.0787 115.097 41.8577 114.838 41.598 114.578Z" fill="white"/>
<path d="M37.1836 92.5073C35.366 93.0266 33.2888 93.2862 31.4713 93.2862C28.3555 93.0266 25.2397 91.988 22.9029 89.6512C22.1239 91.7283 20.0467 93.5459 17.9695 94.5845C17.4502 94.8441 17.4502 94.8441 16.9309 94.8441C16.9309 94.8441 16.9309 94.8441 16.9309 94.5845C16.6713 93.0266 16.6713 91.4687 17.4502 89.6512C17.9695 88.0933 19.0081 86.795 20.3064 85.4968L20.566 85.2371C20.8257 84.9775 21.0853 84.9775 21.0853 84.7178C22.1239 83.9389 23.4222 83.4196 24.9801 82.9003C25.759 82.6406 26.538 82.6406 27.0573 82.6406C30.952 82.6406 34.3274 84.7178 35.8853 88.0933C36.4046 89.3915 36.9239 90.4301 36.9239 91.209C37.1836 91.7283 37.1836 92.2476 37.1836 92.5073Z" fill="#A1ADB5"/>
<path d="M25.2403 114.32C24.2017 115.358 22.9035 115.358 21.3456 115.358C22.6438 114.06 21.8649 109.646 16.9316 110.165C10.1807 108.867 10.9596 102.116 17.4509 100.299L18.4895 100.039H18.7491C19.2684 101.337 19.7877 102.636 20.8263 103.414C17.9702 105.492 21.8649 106.011 23.6824 108.088C25.2403 108.867 26.5386 112.502 25.2403 114.32Z" fill="#A1ADB5"/>
</svg>
