<svg version="1.2" xmlns="http://www.w3.org/2000/svg" viewBox="0 0 56 62" width="56" height="62"><defs><clipPath clipPathUnits="userSpaceOnUse" id="cp1"><path d="m16 20h20v20h-20z"/></clipPath><clipPath clipPathUnits="userSpaceOnUse" id="cp2"><path d="m14 18h24v24h-24z"/></clipPath></defs><style>.a{fill:#4582c4}.b{fill:none;stroke:#fff;stroke-linecap:round;stroke-linejoin:round;stroke-width:2}</style><path class="a" d="m26 52c-12.2 0-22-9.8-22-22 0-12.2 9.8-22 22-22 12.2 0 22 9.8 22 22 0 12.2-9.8 22-22 22z"/><g clip-path="url(#cp1)"><g clip-path="url(#cp2)"><path fill-rule="evenodd" class="b" d="m29 26"/><path fill-rule="evenodd" class="b" d="m31 22h-10c-1.7 0-3 1.3-3 3v10c0 1.7 1.3 3 3 3h10c1.7 0 3-1.3 3-3v-10c0-1.7-1.3-3-3-3z"/><path fill-rule="evenodd" class="b" d="m18 33l4-4q0.7-0.7 1.5-0.7 0.8 0 1.5 0.7l5 5"/><path fill-rule="evenodd" class="b" d="m28 32l1-1q0.7-0.7 1.5-0.7 0.8 0 1.5 0.7l2 2"/></g></g></svg>