<svg width="72" height="69" viewBox="0 0 72 69" fill="none" xmlns="http://www.w3.org/2000/svg">
<rect x="0.25" y="0.25" width="71.5" height="68.5" rx="13.75" fill="#E8EAEC"/>
<path d="M47.24 33.4992C46.8316 33.4992 46.4399 33.337 46.1511 33.0482C45.8622 32.7594 45.7 32.3677 45.7 31.9592C45.7 31.2192 44.96 29.6792 43.72 28.3392C42.5 27.0392 41.16 26.2792 40.04 26.2792C39.6316 26.2792 39.2399 26.117 38.9511 25.8282C38.6622 25.5394 38.5 25.1477 38.5 24.7392C38.5 23.8992 39.2 23.1992 40.04 23.1992C42.04 23.1992 44.14 24.2792 45.98 26.2192C47.7 28.0392 48.8 30.2992 48.8 31.9392C48.8 32.7992 48.1 33.4992 47.24 33.4992Z" fill="#1D2022"/>
<path d="M54.46 33.5C54.0516 33.5 53.6599 33.3378 53.3711 33.0489C53.0823 32.7601 52.92 32.3684 52.92 31.96C52.92 24.86 47.14 19.1 40.06 19.1C39.6516 19.1 39.2599 18.9378 38.9711 18.6489C38.6823 18.3601 38.52 17.9684 38.52 17.56C38.52 16.72 39.2 16 40.04 16C48.84 16 56 23.16 56 31.96C56 32.8 55.3 33.5 54.46 33.5Z" fill="#1D2022"/>
<path opacity="0.4" d="M35.58 40.42L29.04 46.96C28.32 46.32 27.62 45.66 26.94 44.98C24.9175 42.944 23.0522 40.7578 21.36 38.44C19.72 36.16 18.4 33.88 17.44 31.62C16.48 29.34 16 27.16 16 25.08C16 23.72 16.24 22.42 16.72 21.22C17.2 20 17.96 18.88 19.02 17.88C20.3 16.62 21.7 16 23.18 16C23.74 16 24.3 16.12 24.8 16.36C25.32 16.6 25.78 16.96 26.14 17.48L30.78 24.02C31.14 24.52 31.4 24.98 31.58 25.42C31.76 25.84 31.86 26.26 31.86 26.64C31.86 27.12 31.72 27.6 31.44 28.06C31.18 28.52 30.8 29 30.32 29.48L28.8 31.06C28.58 31.28 28.48 31.54 28.48 31.86C28.48 32.02 28.5 32.16 28.54 32.32C28.6 32.48 28.66 32.6 28.7 32.72C29.06 33.38 29.68 34.24 30.56 35.28C31.46 36.32 32.42 37.38 33.46 38.44C34.18 39.14 34.88 39.82 35.58 40.42Z" fill="#1D2022"/>
<path d="M55.9399 48.6581C55.9373 49.4129 55.7665 50.1576 55.4399 50.8381C55.0999 51.5581 54.66 52.2381 54.08 52.8781C53.1 53.9581 52.0199 54.7381 50.7999 55.2381C50.7799 55.2381 50.76 55.2581 50.74 55.2581C49.56 55.7381 48.28 55.9981 46.9 55.9981C44.86 55.9981 42.6799 55.5181 40.3799 54.5381C38.0799 53.5581 35.78 52.2381 33.5 50.5781C32.72 49.9981 31.94 49.4181 31.2 48.7981L37.7399 42.2581C38.2999 42.6781 38.7999 42.9981 39.2199 43.2181C39.3199 43.2581 39.4399 43.3181 39.5799 43.3781C39.74 43.4381 39.9 43.4581 40.0799 43.4581C40.4199 43.4581 40.6799 43.3381 40.8999 43.1181L42.4199 41.6181C42.9199 41.1181 43.4 40.7381 43.86 40.4981C44.32 40.2181 44.7799 40.0781 45.2799 40.0781C45.6599 40.0781 46.0599 40.1581 46.4999 40.3381C46.9399 40.5181 47.4 40.7781 47.9 41.1181L54.5199 45.8181C55.0399 46.1781 55.3999 46.5981 55.6199 47.0981C55.8199 47.5981 55.9399 48.0981 55.9399 48.6581Z" fill="#1D2022"/>
<rect x="0.25" y="0.25" width="71.5" height="68.5" rx="13.75" stroke="#DCE0E3" stroke-width="0.5"/>
</svg>
