<svg width="66" height="58" viewBox="0 0 66 58" fill="none" xmlns="http://www.w3.org/2000/svg">
<rect x="0.25" y="0.25" width="65.5" height="57.5" rx="11.75" fill="#1293BA" fill-opacity="0.1"/>
<path opacity="0.4" d="M33 37.5V41.546C33 44.725 31.725 46 28.529 46H20.454C17.275 46 16 44.725 16 41.546V33.471C16 30.275 17.275 29 20.454 29H24.5V33.029C24.5 36.225 25.775 37.5 28.954 37.5H33Z" fill="#09495D"/>
<path opacity="0.6" d="M41.5 29V33.029C41.5 36.225 40.225 37.5 37.029 37.5H28.954C25.775 37.5 24.5 36.225 24.5 33.029V24.954C24.5 21.775 25.775 20.5 28.954 20.5H33V24.529C33 27.725 34.275 29 37.454 29H41.5Z" fill="#09495D"/>
<path d="M50 16.454V24.529C50 27.725 48.725 29 45.529 29H37.454C34.275 29 33 27.725 33 24.529V16.454C33 13.275 34.275 12 37.454 12H45.529C48.725 12 50 13.275 50 16.454Z" fill="#09495D"/>
<rect x="0.25" y="0.25" width="65.5" height="57.5" rx="11.75" stroke="#1293BA" stroke-width="0.5"/>
</svg>
