<svg width="66" height="58" viewBox="0 0 66 58" fill="none" xmlns="http://www.w3.org/2000/svg">
<rect x="0.25" y="0.25" width="65.5" height="57.5" rx="11.75" fill="#1293BA" fill-opacity="0.1"/>
<path d="M47.1667 43.1641H18.8334C18.2525 43.1641 17.7709 42.6824 17.7709 42.1016C17.7709 41.5207 18.2525 41.0391 18.8334 41.0391H47.1667C47.7475 41.0391 48.2292 41.5207 48.2292 42.1016C48.2292 42.6824 47.7475 43.1641 47.1667 43.1641Z" fill="#09495D"/>
<path d="M29.8125 17.6654V43.1654H36.1875V17.6654C36.1875 16.107 35.55 14.832 33.6375 14.832H32.3625C30.45 14.832 29.8125 16.107 29.8125 17.6654Z" fill="#09495D"/>
<path opacity="0.4" d="M20.25 26.1654V43.1654H25.9167V26.1654C25.9167 24.607 25.35 23.332 23.65 23.332H22.5167C20.8167 23.332 20.25 24.607 20.25 26.1654Z" fill="#09495D"/>
<path opacity="0.4" d="M40.0834 33.2474V43.1641H45.75V33.2474C45.75 31.6891 45.1834 30.4141 43.4834 30.4141H42.35C40.65 30.4141 40.0834 31.6891 40.0834 33.2474Z" fill="#09495D"/>
<rect x="0.25" y="0.25" width="65.5" height="57.5" rx="11.75" stroke="#1293BA" stroke-width="0.5"/>
</svg>
