<svg width="20" height="20" viewBox="0 0 20 20" fill="none" xmlns="http://www.w3.org/2000/svg">
<g clip-path="url(#clip0_2115_64366)">
<g clip-path="url(#clip1_2115_64366)">
<path d="M10 18L7 15H5C4.20435 15 3.44129 14.6839 2.87868 14.1213C2.31607 13.5587 2 12.7956 2 12V6C2 5.20435 2.31607 4.44129 2.87868 3.87868C3.44129 3.31607 4.20435 3 5 3H15C15.7956 3 16.5587 3.31607 17.1213 3.87868C17.6839 4.44129 18 5.20435 18 6V12C18 12.7956 17.6839 13.5587 17.1213 14.1213C16.5587 14.6839 15.7956 15 15 15H13L10 18Z" stroke="#2B2F32" stroke-width="2" stroke-linecap="round" stroke-linejoin="round"/>
<path d="M6 7H14" stroke="#2B2F32" stroke-width="2" stroke-linecap="round" stroke-linejoin="round"/>
<path d="M6 11H12" stroke="#2B2F32" stroke-width="2" stroke-linecap="round" stroke-linejoin="round"/>
</g>
</g>
<defs>
<clipPath id="clip0_2115_64366">
<rect width="20" height="20" fill="white"/>
</clipPath>
<clipPath id="clip1_2115_64366">
<rect width="24" height="24" fill="white" transform="translate(-2 -2)"/>
</clipPath>
</defs>
</svg>
