<svg width="28" height="28" viewBox="0 0 28 28" fill="none" xmlns="http://www.w3.org/2000/svg">
<path d="M0.200195 13.9992C0.200195 6.37769 6.37867 0.199219 14.0002 0.199219C21.6217 0.199219 27.8002 6.37769 27.8002 13.9992C27.8002 21.6207 21.6217 27.7992 14.0002 27.7992C6.37867 27.7992 0.200195 21.6207 0.200195 13.9992Z" fill="white"/>
<mask id="mask0_2408_59283" style="mask-type:luminance" maskUnits="userSpaceOnUse" x="0" y="0" width="28" height="28">
<path fill-rule="evenodd" clip-rule="evenodd" d="M0.200195 13.9992C0.200195 6.37769 6.37867 0.199219 14.0002 0.199219C21.6217 0.199219 27.8002 6.37769 27.8002 13.9992C27.8002 21.6207 21.6217 27.7992 14.0002 27.7992C6.37867 27.7992 0.200195 21.6207 0.200195 13.9992Z" fill="white"/>
</mask>
<g mask="url(#mask0_2408_59283)">
<path fill-rule="evenodd" clip-rule="evenodd" d="M12.1602 13.9981C12.1602 13.4925 12.524 13.0781 12.9848 13.0781C13.4456 13.0781 13.8174 13.4925 13.8094 13.9981C13.8094 14.5037 13.4456 14.9181 12.9848 14.9181C12.532 14.9181 12.1602 14.5037 12.1602 13.9981ZM15.1109 13.9981C15.1109 13.4925 15.4747 13.0781 15.9356 13.0781C16.3964 13.0781 16.7602 13.4925 16.7602 13.9981C16.7602 14.5037 16.3964 14.9181 15.9356 14.9181C15.4828 14.9181 15.1109 14.5037 15.1109 13.9981Z" fill="#7289DA"/>
<path fill-rule="evenodd" clip-rule="evenodd" d="M8.77104 6.17969H19.6901C20.6109 6.17969 21.3606 6.92029 21.3606 7.83799V22.2797L19.6086 20.7502L18.6227 19.8486L17.5796 18.8906L18.0115 20.3799H8.77104C7.85025 20.3799 7.10059 19.6393 7.10059 18.7216V7.83799C7.10059 6.92029 7.85025 6.17969 8.77104 6.17969ZM16.007 16.0409C16.2514 16.3468 16.5448 16.693 16.5448 16.693C18.3456 16.6366 19.0382 15.4694 19.0382 15.4694C19.0382 12.8773 17.8648 10.7762 17.8648 10.7762C16.6915 9.90684 15.5751 9.93099 15.5751 9.93099L15.461 10.0598C16.8463 10.4784 17.49 11.0821 17.49 11.0821C16.6426 10.6233 15.8114 10.3979 15.0373 10.3093C14.4506 10.2449 13.8883 10.261 13.3913 10.3254C13.3486 10.3254 13.3121 10.3316 13.271 10.3385C13.265 10.3395 13.259 10.3405 13.2528 10.3415C12.9676 10.3657 12.2749 10.4703 11.403 10.8487C11.1015 10.9855 10.9223 11.0821 10.9223 11.0821C10.9223 11.0821 11.5986 10.4462 13.0653 10.0276L12.9839 9.93099C12.9839 9.93099 11.8675 9.90684 10.6941 10.7762C10.6941 10.7762 9.52071 12.8773 9.52071 15.4694C9.52071 15.4694 10.2052 16.6366 12.006 16.693C12.006 16.693 12.3075 16.3307 12.552 16.0248C11.5171 15.7189 11.126 15.0749 11.126 15.0749C11.126 15.0749 11.2075 15.1313 11.3541 15.2118C11.3623 15.2198 11.3704 15.2279 11.3867 15.2359C11.399 15.244 11.4112 15.25 11.4234 15.2561C11.4356 15.2621 11.4478 15.2681 11.4601 15.2762C11.6638 15.3889 11.8675 15.4774 12.0549 15.5499C12.389 15.6787 12.7883 15.8075 13.2528 15.896C13.8639 16.0087 14.581 16.049 15.3632 15.9041C15.7462 15.8397 16.1374 15.727 16.5448 15.5579C16.83 15.4533 17.1478 15.3003 17.4819 15.083C17.4819 15.083 17.0744 15.7431 16.007 16.0409Z" fill="#7289DA"/>
</g>
</svg>
