<svg width="20" height="20" viewBox="0 0 20 20" fill="none" xmlns="http://www.w3.org/2000/svg">
<path d="M5 5H4C3.46957 5 2.96086 5.21071 2.58579 5.58579C2.21071 5.96086 2 6.46957 2 7V16C2 16.5304 2.21071 17.0391 2.58579 17.4142C2.96086 17.7893 3.46957 18 4 18H13C13.5304 18 14.0391 17.7893 14.4142 17.4142C14.7893 17.0391 15 16.5304 15 16V15" stroke="#B22735" stroke-width="2" stroke-linecap="round" stroke-linejoin="round"/>
<path d="M18.385 4.58511C18.7788 4.19126 19.0001 3.65709 19.0001 3.10011C19.0001 2.54312 18.7788 2.00895 18.385 1.61511C17.9912 1.22126 17.457 1 16.9 1C16.343 1 15.8088 1.22126 15.415 1.61511L7 10.0001V13.0001H10L18.385 4.58511Z" stroke="#B22735" stroke-width="2" stroke-linecap="round" stroke-linejoin="round"/>
<path d="M14 3L17 6" stroke="white" stroke-width="2" stroke-linecap="round" stroke-linejoin="round"/>
</svg>
