<svg width="31" height="31" viewBox="0 0 31 31" fill="none" xmlns="http://www.w3.org/2000/svg">
<rect x="0.523438" y="0.992981" width="30" height="30" rx="8" fill="#F9FBFE" fill-opacity="0.52"/>
<g clip-path="url(#clip0_539_79730)">
<path d="M18.2237 11.493L12.3737 17.343C12.0156 17.701 11.8145 18.1866 11.8145 18.693C11.8145 19.1993 12.0156 19.685 12.3737 20.043C12.7317 20.401 13.2173 20.6022 13.7237 20.6022C14.23 20.6022 14.7156 20.401 15.0737 20.043L20.9237 14.193C21.6397 13.4769 22.042 12.5057 22.042 11.493C22.042 10.4803 21.6397 9.50908 20.9237 8.793C20.2076 8.07691 19.2364 7.67462 18.2237 7.67462C17.211 7.67462 16.2397 8.07691 15.5237 8.793L9.67366 14.643C8.59953 15.7171 7.99609 17.174 7.99609 18.693C7.99609 20.212 8.59953 21.6689 9.67366 22.743C10.7478 23.8171 12.2046 24.4206 13.7237 24.4206C15.2427 24.4206 16.6995 23.8171 17.7737 22.743L23.6237 16.893" stroke="#2B2F32" stroke-width="2" stroke-linecap="round" stroke-linejoin="round"/>
</g>
<defs>
<clipPath id="clip0_539_79730">
<rect width="21.6" height="21.6" fill="white" transform="translate(4.72363 5.19299)"/>
</clipPath>
</defs>
</svg>
