<svg width="29" height="28" viewBox="0 0 29 28" fill="none" xmlns="http://www.w3.org/2000/svg">
<path d="M0.700195 13.9992C0.700195 21.6207 6.87867 27.7992 14.5002 27.7992C22.1217 27.7992 28.3002 21.6207 28.3002 13.9992C28.3002 6.37769 22.1217 0.199219 14.5002 0.199219C6.87867 0.199219 0.700195 6.37769 0.700195 13.9992Z" fill="#1877F2"/>
<path d="M21.4006 13.9977C21.4006 10.2027 18.2956 7.09766 14.5006 7.09766C10.7056 7.09766 7.60059 10.2027 7.60059 13.9977C7.60059 17.4477 10.1018 20.2939 13.3793 20.8114V15.9814H11.6543V13.9977H13.3793V12.4452C13.3793 10.7202 14.4143 9.77141 15.9668 9.77141C16.7431 9.77141 17.5193 9.94391 17.5193 9.94391V11.6689H16.6568C15.7943 11.6689 15.5356 12.1864 15.5356 12.7039V13.9977H17.4331L17.0881 15.9814H15.4493V20.8977C18.8993 20.3802 21.4006 17.4477 21.4006 13.9977Z" fill="white"/>
</svg>
