<svg width="82" height="72" viewBox="0 0 82 72" fill="none" xmlns="http://www.w3.org/2000/svg">
<rect x="1.15735" y="0.562592" width="80.3797" height="70.5761" rx="14.4554" fill="#05252E" fill-opacity="0.1"/>
<path opacity="0.4" d="M56.1036 32.7084H51.0864C46.972 32.7084 43.6214 29.3578 43.6214 25.2434V20.2262C43.6214 19.2713 42.8402 18.4901 41.8854 18.4901H34.5245C29.1774 18.4901 24.8547 21.9622 24.8547 28.1599V43.5414C24.8547 49.7391 29.1774 53.2112 34.5245 53.2112H48.1699C53.5169 53.2112 57.8397 49.7391 57.8397 43.5414V34.4444C57.8397 33.4896 57.0585 32.7084 56.1036 32.7084Z" fill="#09495D"/>
<path d="M47.9442 18.8547C47.2324 18.1429 45.9998 18.629 45.9998 19.6185V25.6774C45.9998 28.212 48.1525 30.3126 50.774 30.3126C52.4232 30.33 54.7148 30.33 56.6765 30.33C57.6661 30.33 58.1869 29.1668 57.4925 28.4724C54.9926 25.9551 50.5136 21.424 47.9442 18.8547Z" fill="#09495D"/>
<path d="M46.1387 48.4544C42.059 48.7495 42.059 54.6521 46.1387 54.9472H55.7912C56.9543 54.9472 58.1001 54.5132 58.9508 53.732C61.8153 51.232 60.2875 46.2322 56.5203 45.7635C55.1662 37.6214 43.3957 40.7116 46.1734 48.4717" fill="#09495D"/>
<rect x="1.15735" y="0.562592" width="80.3797" height="70.5761" rx="14.4554" stroke="#1293BA" stroke-width="0.5"/>
</svg>
