<svg width="133" height="97" viewBox="0 0 133 97" fill="none" xmlns="http://www.w3.org/2000/svg">
<rect x="0.10376" y="0.846375" width="132.152" height="96.1105" rx="24.0276" fill="#F3F5F6"/>
<rect x="24.1314" y="18.8671" width="84.0967" height="60.0691" rx="30.0345" fill="white"/>
<g clip-path="url(#clip0_1200_44937)">
<path d="M66.1796 56.1099C70.1606 56.1099 73.3879 52.8826 73.3879 48.9016C73.3879 44.9206 70.1606 41.6933 66.1796 41.6933C62.1985 41.6933 58.9713 44.9206 58.9713 48.9016C58.9713 52.8826 62.1985 56.1099 66.1796 56.1099Z" stroke="#8F8129" stroke-width="3.06362" stroke-linecap="round" stroke-linejoin="round"/>
<path d="M78.1934 60.9154L72.1865 54.9084" stroke="#8F8129" stroke-width="3.06362" stroke-linecap="round" stroke-linejoin="round"/>
<path d="M61.3741 32.0823L66.1796 27.2767L70.9851 32.0823" stroke="#8F8129" stroke-width="3.06362" stroke-linecap="round" stroke-linejoin="round"/>
<path d="M82.9989 44.0961L87.8044 48.9016L82.9989 53.7071" stroke="#8F8129" stroke-width="2.4509" stroke-linecap="round" stroke-linejoin="round"/>
<path d="M49.3602 44.0961L44.5547 48.9016L49.3602 53.7071" stroke="#8F8129" stroke-width="2.4509" stroke-linecap="round" stroke-linejoin="round"/>
<path d="M61.3741 65.7209L66.1796 70.5265L70.9851 65.7209" stroke="#8F8129" stroke-width="2.4509" stroke-linecap="round" stroke-linejoin="round"/>
</g>
<defs>
<clipPath id="clip0_1200_44937">
<rect width="48.0552" height="48.0552" fill="white" transform="translate(42.1521 24.874)"/>
</clipPath>
</defs>
</svg>
