<svg width="82" height="72" viewBox="0 0 82 72" fill="none" xmlns="http://www.w3.org/2000/svg">
<rect x="0.57782" y="0.562592" width="80.3797" height="70.5761" rx="14.4554" fill="#05252E" fill-opacity="0.1"/>
<path opacity="0.4" d="M58.1282 43.6629V48.871C58.1282 51.4751 56.3921 53.2112 53.7881 53.2112H30.3513C31.0631 53.2112 31.7923 53.107 32.4693 52.8813C32.6603 52.8119 32.8513 52.7424 33.0422 52.6556C33.6498 52.4126 34.2401 52.0654 34.7609 51.614C34.9172 51.4925 35.0908 51.3362 35.247 51.18L35.3164 51.1105L47.1216 39.3227H53.7881C56.3921 39.3227 58.1282 41.0588 58.1282 43.6629Z" fill="#09495D"/>
<path opacity="0.6" d="M51.8263 34.618L47.1216 39.3227L35.3165 51.1105C36.5317 49.8606 37.2956 48.1419 37.2956 46.2669V29.4967L42.0003 24.792C43.8405 22.9518 46.3057 22.9518 48.1459 24.792L51.8263 28.4724C53.6666 30.3126 53.6666 32.7778 51.8263 34.618Z" fill="#09495D"/>
<path d="M32.9554 18.4901H27.7473C25.1432 18.4901 23.4072 20.2262 23.4072 22.8302V46.267C23.4072 46.7357 23.4592 47.2044 23.546 47.6558C23.5981 47.8815 23.6502 48.1072 23.7196 48.3329C23.8064 48.5933 23.8932 48.8537 23.9974 49.0967C24.0148 49.1141 24.0148 49.1315 24.0148 49.1315C24.0321 49.1315 24.0321 49.1315 24.0148 49.1488C24.2578 49.6349 24.5356 50.1036 24.8654 50.5377C25.0564 50.7633 25.2474 50.9717 25.4383 51.18C25.6293 51.3883 25.8376 51.5619 26.0633 51.7355L26.0807 51.7529C26.5147 52.0827 26.9834 52.3605 27.4695 52.6036C27.4869 52.5862 27.4869 52.5862 27.4869 52.6036C27.7473 52.7251 28.0077 52.8119 28.2855 52.8987C28.5111 52.9681 28.7368 53.0202 28.9625 53.0723C29.4139 53.1591 29.8826 53.2112 30.3514 53.2112C31.0631 53.2112 31.7923 53.107 32.4693 52.8813C32.6603 52.8119 32.8513 52.7424 33.0422 52.6556C33.6499 52.4126 34.2401 52.0654 34.7609 51.614C34.9172 51.4925 35.0908 51.3362 35.247 51.18L35.3165 51.1106C36.5317 49.8606 37.2956 48.1419 37.2956 46.267V22.8302C37.2956 20.2262 35.5595 18.4901 32.9554 18.4901ZM30.3514 48.871C28.9104 48.871 27.7473 47.7079 27.7473 46.267C27.7473 44.826 28.9104 43.6629 30.3514 43.6629C31.7923 43.6629 32.9554 44.826 32.9554 46.267C32.9554 47.7079 31.7923 48.871 30.3514 48.871Z" fill="#09495D"/>
<rect x="0.57782" y="0.562592" width="80.3797" height="70.5761" rx="14.4554" stroke="#1293BA" stroke-width="0.5"/>
</svg>
