<svg width="133" height="97" viewBox="0 0 133 97" fill="none" xmlns="http://www.w3.org/2000/svg">
<rect x="0.103729" y="0.846375" width="132.152" height="96.1105" rx="24.0276" fill="#F3F5F6"/>
<rect x="24.1313" y="18.8671" width="84.0967" height="60.0691" rx="30.0345" fill="white"/>
<path d="M70.9852 27.2767V36.8877C70.9852 37.525 71.2383 38.1361 71.6889 38.5867C72.1396 39.0373 72.7507 39.2905 73.388 39.2905H82.999" stroke="#8F8129" stroke-width="3.06362" stroke-linecap="round" stroke-linejoin="round"/>
<path d="M61.3741 70.5264H54.1658C52.8913 70.5264 51.669 70.0201 50.7678 69.1189C49.8666 68.2177 49.3603 66.9954 49.3603 65.7209V32.0822C49.3603 30.8077 49.8666 29.5854 50.7678 28.6842C51.669 27.783 52.8913 27.2767 54.1658 27.2767H70.9852L82.999 39.2905V44.096" stroke="#8F8129" stroke-width="3.06362" stroke-linecap="round" stroke-linejoin="round"/>
<path d="M68.5822 68.1237H80.596C81.8705 68.1237 83.0928 67.6174 83.994 66.7161C84.8952 65.8149 85.4015 64.5926 85.4015 63.3181V51.3043" stroke="#8F8129" stroke-width="3.06362" stroke-linecap="round" stroke-linejoin="round"/>
<path d="M73.3877 72.9292L68.5822 68.1236L73.3877 63.3181" stroke="#8F8129" stroke-width="3.06" stroke-linecap="round" stroke-linejoin="round"/>
<path d="M80.5961 56.1098L85.4016 51.3043L90.2072 56.1098" stroke="#8F8129" stroke-width="3.06" stroke-linecap="round" stroke-linejoin="round"/>
</svg>
