<svg width="82" height="72" viewBox="0 0 82 72" fill="none" xmlns="http://www.w3.org/2000/svg">
<rect x="1.11447" y="0.562592" width="80.3797" height="70.5761" rx="14.4554" fill="#05252E" fill-opacity="0.1"/>
<path opacity="0.4" d="M56.0608 32.7084H51.0436C46.9291 32.7084 43.5785 29.3578 43.5785 25.2434V20.2262C43.5785 19.2713 42.7973 18.4901 41.8425 18.4901H34.4816C29.1346 18.4901 24.8118 21.9622 24.8118 28.1599V43.5414C24.8118 49.7391 29.1346 53.2112 34.4816 53.2112H48.127C53.474 53.2112 57.7968 49.7391 57.7968 43.5414V34.4444C57.7968 33.4896 57.0156 32.7084 56.0608 32.7084Z" fill="#09495D"/>
<path d="M47.9013 18.8547C47.1895 18.1429 45.9569 18.629 45.9569 19.6185V25.6774C45.9569 28.212 48.1096 30.3126 50.7311 30.3126C52.3803 30.33 54.6719 30.33 56.6337 30.33C57.6232 30.33 58.144 29.1668 57.4496 28.4724C54.9497 25.9551 50.4707 21.424 47.9013 18.8547Z" fill="#09495D"/>
<path d="M43.0403 39.7585H35.7663L37.0162 38.5086C37.5197 38.0051 37.5197 37.1718 37.0162 36.6683C36.7712 36.4262 36.4406 36.2904 36.0961 36.2904C35.7516 36.2904 35.421 36.4262 35.176 36.6683L31.7039 40.1405C31.6866 40.1578 31.6866 40.1752 31.6692 40.1752C31.565 40.2793 31.4782 40.4182 31.4088 40.5571C31.4088 40.5745 31.4088 40.5745 31.3914 40.5918C31.3393 40.7307 31.322 40.8696 31.3046 41.0085V41.1474C31.3046 41.2515 31.3393 41.3557 31.3741 41.4599C31.3914 41.5119 31.4088 41.5467 31.4262 41.5814C31.4956 41.7203 31.565 41.8591 31.6866 41.9633L35.1587 45.4354C35.4191 45.6958 35.7489 45.8173 36.0788 45.8173C36.4086 45.8173 36.7385 45.6958 36.9989 45.4354C37.5023 44.932 37.5023 44.0987 36.9989 43.5952L35.7489 42.3452H43.0403C43.7521 42.3452 44.3424 41.755 44.3424 41.0432C44.3424 40.3314 43.7521 39.7585 43.0403 39.7585Z" fill="#09495D"/>
<rect x="1.11447" y="0.562592" width="80.3797" height="70.5761" rx="14.4554" stroke="#1293BA" stroke-width="0.5"/>
</svg>
