<svg width="133" height="97" viewBox="0 0 133 97" fill="none" xmlns="http://www.w3.org/2000/svg">
<rect x="0.00549316" y="0.846497" width="132.152" height="96.1105" rx="24.0276" fill="#F3F5F6"/>
<rect x="24.0331" y="18.8672" width="84.0967" height="60.0691" rx="30.0345" fill="white"/>
<g clip-path="url(#clip0_1200_44761)">
<g clip-path="url(#clip1_1200_44761)">
<path d="M56.1315 34.4852H49.3221C48.0316 34.4852 46.7941 34.9978 45.8816 35.9103C44.9691 36.8227 44.4565 38.0603 44.4565 39.3508V46.1602C44.4565 47.4505 44.9683 48.6879 45.8813 49.6009L60.5766 64.2962C61.0284 64.7481 61.5648 65.1066 62.1552 65.3512C62.7456 65.5957 63.3783 65.7216 64.0174 65.7216C64.6564 65.7216 65.2892 65.5957 65.8795 65.3512C66.4699 65.1066 67.0063 64.7481 67.4581 64.2962L74.2676 57.4868C74.7194 57.035 75.0779 56.4986 75.3225 55.9082C75.567 55.3178 75.6929 54.6851 75.6929 54.0461C75.6929 53.407 75.567 52.7743 75.3225 52.1839C75.0779 51.5935 74.7194 51.0571 74.2676 50.6053L59.5699 35.91C58.6579 34.9982 57.4212 34.4857 56.1315 34.4852Z" stroke="#8F8129" stroke-width="3.06362" stroke-linecap="round" stroke-linejoin="round"/>
<path d="M79.4719 64.2963L86.2813 57.4868C86.7332 57.035 87.0917 56.4986 87.3363 55.9082C87.5808 55.3179 87.7067 54.6851 87.7067 54.0461C87.7067 53.4071 87.5808 52.7743 87.3363 52.1839C87.0917 51.5936 86.7332 51.0571 86.2813 50.6053L69.1809 33.5073" stroke="#8F8129" stroke-width="3.06362" stroke-linecap="round" stroke-linejoin="round"/>
<path d="M51.6647 41.6935H51.6407" stroke="#8F8129" stroke-width="3.06362" stroke-linecap="round" stroke-linejoin="round"/>
</g>
</g>
<defs>
<clipPath id="clip0_1200_44761">
<rect width="48.0552" height="48.0552" fill="white" transform="translate(42.0538 24.8741)"/>
</clipPath>
<clipPath id="clip1_1200_44761">
<rect width="57.6663" height="57.6663" fill="white" transform="translate(37.2482 20.0686)"/>
</clipPath>
</defs>
</svg>
