<svg width="81" height="72" viewBox="0 0 81 72" fill="none" xmlns="http://www.w3.org/2000/svg">
<rect x="0.311901" y="1.15286" width="80.2669" height="70.4633" rx="14.399" fill="#F7E9EB"/>
<path d="M48.518 50.6201V51.1236C45.8269 52.8534 42.6914 53.7644 39.4924 53.7459C36.2934 53.7274 33.1686 52.7802 30.4977 51.0194V50.6201C30.4977 46.5751 34.5427 43.2766 39.5079 43.2766C44.4903 43.2766 48.518 46.5751 48.518 50.6201Z" fill="#B22735"/>
<path opacity="0.4" d="M56.0698 37.2526C56.0698 43.0684 53.0664 48.1724 48.518 51.1236V50.6202C48.518 46.5752 44.4903 43.2767 39.5079 43.2767C34.5427 43.2767 30.4977 46.5752 30.4977 50.6202V51.0195C28.2182 49.5186 26.3474 47.4748 25.0534 45.0718C23.7595 42.6688 23.083 39.9818 23.0848 37.2526C23.0848 28.1383 30.463 20.7601 39.5773 20.7601C41.8515 20.7601 44.0216 21.2114 46.0007 22.0448C45.775 22.7392 45.6535 23.4683 45.6535 24.2322C45.6535 25.5342 46.0181 26.7668 46.6604 27.8084C47.0076 28.3987 47.459 28.9369 47.9798 29.3883C49.195 30.4993 50.8096 31.1764 52.5977 31.1764C53.3616 31.1764 54.0907 31.0549 54.7678 30.8118C55.6011 32.7909 56.0698 34.9783 56.0698 37.2526Z" fill="#B22735"/>
<path d="M57.7538 19.5969C57.1081 18.8673 56.3142 18.284 55.425 17.8858C54.5359 17.4876 53.572 17.2838 52.5977 17.2879C51.6855 17.2868 50.782 17.4656 49.939 17.8142C49.0959 18.1627 48.3299 18.6742 47.6849 19.3193C47.0398 19.9643 46.5284 20.7303 46.1798 21.5733C45.8312 22.4164 45.6524 23.3199 45.6535 24.2321C45.6535 25.5342 46.0181 26.7668 46.6604 27.8084C47.0076 28.3986 47.459 28.9368 47.9798 29.3882C49.1951 30.4993 50.8096 31.1763 52.5977 31.1763C53.3616 31.1763 54.0907 31.0548 54.7678 30.8118C56.365 30.3083 57.7017 29.2146 58.535 27.8084C58.8996 27.2181 59.1774 26.5411 59.3336 25.8466C59.4725 25.3258 59.542 24.7877 59.542 24.2321C59.542 22.4613 58.8649 20.8295 57.7538 19.5969ZM55.1845 25.4994H53.8998V26.8536C53.8998 27.5653 53.3095 28.1556 52.5977 28.1556C51.886 28.1556 51.2957 27.5653 51.2957 26.8536V25.4994H50.011C49.2992 25.4994 48.709 24.9092 48.709 24.1974C48.709 23.4856 49.2992 22.8954 50.011 22.8954H51.2957V21.6628C51.2957 20.951 51.886 20.3607 52.5977 20.3607C53.3095 20.3607 53.8998 20.951 53.8998 21.6628V22.8954H55.1845C55.5298 22.8954 55.861 23.0325 56.1051 23.2767C56.3493 23.5209 56.4865 23.8521 56.4865 24.1974C56.4865 24.5427 56.3493 24.8739 56.1051 25.1181C55.861 25.3623 55.5298 25.4994 55.1845 25.4994Z" fill="#B22735"/>
<path d="M39.5078 41.1239C40.8016 41.1239 42.0425 40.61 42.9573 39.6951C43.8722 38.7802 44.3861 37.5394 44.3861 36.2456C44.3861 34.9518 43.8722 33.711 42.9573 32.7961C42.0425 31.8813 40.8016 31.3673 39.5078 31.3673C38.214 31.3673 36.9732 31.8813 36.0583 32.7961C35.1435 33.711 34.6295 34.9518 34.6295 36.2456C34.6295 37.5394 35.1435 38.7802 36.0583 39.6951C36.9732 40.61 38.214 41.1239 39.5078 41.1239Z" fill="#B22735"/>
<rect x="0.311901" y="1.15286" width="80.2669" height="70.4633" rx="14.399" stroke="#F0D4D7" stroke-width="0.612725"/>
</svg>
