<svg width="37" height="37" viewBox="0 0 37 37" fill="none" xmlns="http://www.w3.org/2000/svg">
<path d="M25.518 33.6201V34.1236C22.8269 35.8534 19.6914 36.7644 16.4924 36.7459C13.2934 36.7274 10.1686 35.7802 7.49773 34.0194V33.6201C7.49773 29.5751 11.5427 26.2766 16.5079 26.2766C21.4903 26.2766 25.518 29.5751 25.518 33.6201Z" fill="#B22735"/>
<path opacity="0.4" d="M33.0698 20.2526C33.0698 26.0684 30.0664 31.1724 25.518 34.1236V33.6202C25.518 29.5752 21.4903 26.2767 16.5079 26.2767C11.5427 26.2767 7.49774 29.5752 7.49774 33.6202V34.0195C5.2182 32.5186 3.34736 30.4748 2.05342 28.0718C0.759478 25.6688 0.0829962 22.9818 0.084789 20.2526C0.084789 11.1383 7.46302 3.76007 16.5773 3.76007C18.8515 3.76007 21.0216 4.21144 23.0007 5.04475C22.775 5.73917 22.6535 6.46831 22.6535 7.23218C22.6535 8.53422 23.0181 9.76682 23.6604 10.8084C24.0076 11.3987 24.459 11.9369 24.9798 12.3883C26.195 13.4993 27.8096 14.1764 29.5977 14.1764C30.3616 14.1764 31.0907 14.0549 31.7678 13.8118C32.6011 15.7909 33.0698 17.9783 33.0698 20.2526Z" fill="#B22735"/>
<path d="M34.7538 2.59685C34.1081 1.86732 33.3142 1.28398 32.425 0.885807C31.5359 0.487633 30.572 0.283792 29.5977 0.287903C28.6855 0.28676 27.782 0.465598 26.939 0.814173C26.0959 1.16275 25.3299 1.67421 24.6849 2.31927C24.0398 2.96433 23.5284 3.7303 23.1798 4.57333C22.8312 5.41636 22.6524 6.31987 22.6535 7.23212C22.6535 8.53416 23.0181 9.76676 23.6604 10.8084C24.0076 11.3986 24.459 11.9368 24.9798 12.3882C26.1951 13.4993 27.8096 14.1763 29.5977 14.1763C30.3616 14.1763 31.0907 14.0548 31.7678 13.8118C33.365 13.3083 34.7017 12.2146 35.535 10.8084C35.8996 10.2181 36.1774 9.54107 36.3336 8.84665C36.4725 8.32583 36.542 7.78765 36.542 7.23212C36.542 5.46134 35.8649 3.82945 34.7538 2.59685ZM32.1845 8.49944H30.8998V9.85356C30.8998 10.5653 30.3095 11.1556 29.5977 11.1556C28.886 11.1556 28.2957 10.5653 28.2957 9.85356V8.49944H27.011C26.2992 8.49944 25.709 7.90918 25.709 7.1974C25.709 6.48561 26.2992 5.89536 27.011 5.89536H28.2957V4.66276C28.2957 3.95098 28.886 3.36072 29.5977 3.36072C30.3095 3.36072 30.8998 3.95098 30.8998 4.66276V5.89536H32.1845C32.5298 5.89536 32.861 6.03253 33.1051 6.27671C33.3493 6.52089 33.4865 6.85207 33.4865 7.1974C33.4865 7.54272 33.3493 7.8739 33.1051 8.11808C32.861 8.36226 32.5298 8.49944 32.1845 8.49944Z" fill="#B22735"/>
<path d="M16.5078 24.1239C17.8016 24.1239 19.0425 23.61 19.9573 22.6951C20.8722 21.7802 21.3861 20.5394 21.3861 19.2456C21.3861 17.9518 20.8722 16.711 19.9573 15.7961C19.0425 14.8813 17.8016 14.3673 16.5078 14.3673C15.214 14.3673 13.9732 14.8813 13.0583 15.7961C12.1435 16.711 11.6295 17.9518 11.6295 19.2456C11.6295 20.5394 12.1435 21.7802 13.0583 22.6951C13.9732 23.61 15.214 24.1239 16.5078 24.1239Z" fill="#B22735"/>
</svg>
