<svg width="20" height="20" viewBox="0 0 20 20" fill="none" xmlns="http://www.w3.org/2000/svg">
<g clip-path="url(#clip0_1083_67804)">
<path d="M15.8333 7.25833L11.3892 3.80167C10.9992 3.49826 10.5191 3.33353 10.025 3.33353C9.53087 3.33353 9.05085 3.49826 8.66084 3.80167L4.21584 7.25833C3.94871 7.46607 3.73258 7.73211 3.58397 8.03612C3.43535 8.34014 3.35818 8.6741 3.35834 9.0125V15.0125C3.35834 15.4545 3.53393 15.8785 3.84649 16.191C4.15905 16.5036 4.58298 16.6792 5.025 16.6792H15.025C15.467 16.6792 15.891 16.5036 16.2035 16.191C16.5161 15.8785 16.6917 15.4545 16.6917 15.0125V9.0125C16.6917 8.32667 16.375 7.67917 15.8333 7.25833Z" stroke="#545C62" stroke-width="2" stroke-linecap="round" stroke-linejoin="round"/>
<path d="M13.3334 12.5C11.4917 13.6108 8.50669 13.6108 6.66669 12.5" stroke="#545C62" stroke-width="2" stroke-linecap="round" stroke-linejoin="round"/>
</g>
<defs>
<clipPath id="clip0_1083_67804">
<rect width="20" height="20" fill="white"/>
</clipPath>
</defs>
</svg>
