<svg width="49" height="49" viewBox="0 0 49 49" fill="none" xmlns="http://www.w3.org/2000/svg">
<g clip-path="url(#clip0_1083_82938)">
<g clip-path="url(#clip1_1083_82938)">
<path d="M19.374 36.9155C28.6631 36.9155 36.1933 29.3852 36.1933 20.0961C36.1933 10.8071 28.6631 3.27679 19.374 3.27679C10.0849 3.27679 2.55467 10.8071 2.55467 20.0961C2.55467 29.3852 10.0849 36.9155 19.374 36.9155Z" stroke="#8F8129" stroke-width="3.06362" stroke-linecap="round" stroke-linejoin="round"/>
<path d="M45.8044 46.5265L31.3878 32.1099" stroke="#8F8129" stroke-width="3.06362" stroke-linecap="round" stroke-linejoin="round"/>
<path d="M19.374 27.3044V27.3284" stroke="#8F8129" stroke-width="3.06362" stroke-linecap="round" stroke-linejoin="round"/>
<path d="M19.3741 20.096C19.9789 20.0963 20.574 19.9445 21.1047 19.6544C21.6354 19.3643 22.0845 18.9453 22.4107 18.4361C22.737 17.9268 22.9298 17.3437 22.9715 16.7403C23.0132 16.137 22.9024 15.5328 22.6493 14.9836C22.3962 14.4343 22.0089 13.9575 21.5232 13.5972C21.0375 13.2369 20.4689 13.0046 19.8698 12.9218C19.2707 12.8389 18.6604 12.9081 18.0951 13.123C17.5298 13.3379 17.0277 13.6917 16.635 14.1516" stroke="#8F8129" stroke-width="3.06" stroke-linecap="round" stroke-linejoin="round"/>
</g>
</g>
<defs>
<clipPath id="clip0_1083_82938">
<rect width="48.0552" height="48.0552" fill="white" transform="translate(0.152061 0.874023)"/>
</clipPath>
<clipPath id="clip1_1083_82938">
<rect width="57.6663" height="57.6663" fill="white" transform="translate(-4.65362 -3.93152)"/>
</clipPath>
</defs>
</svg>
