<svg width="59" height="58" viewBox="0 0 59 58" fill="none" xmlns="http://www.w3.org/2000/svg">
<path d="M33.9852 7.27667V16.8877C33.9852 17.525 34.2383 18.1361 34.6889 18.5867C35.1396 19.0373 35.7507 19.2905 36.388 19.2905H45.999" stroke="#8F8129" stroke-width="3.06362" stroke-linecap="round" stroke-linejoin="round"/>
<path d="M24.3741 50.5264H17.1658C15.8913 50.5264 14.669 50.0201 13.7678 49.1189C12.8666 48.2177 12.3603 46.9954 12.3603 45.7209V12.0822C12.3603 10.8077 12.8666 9.58539 13.7678 8.68418C14.669 7.78297 15.8913 7.27667 17.1658 7.27667H33.9852L45.999 19.2905V24.096" stroke="#8F8129" stroke-width="3.06362" stroke-linecap="round" stroke-linejoin="round"/>
<path d="M31.5822 48.1237H43.596C44.8705 48.1237 46.0928 47.6174 46.994 46.7161C47.8952 45.8149 48.4015 44.5926 48.4015 43.3181V31.3043" stroke="#8F8129" stroke-width="3.06362" stroke-linecap="round" stroke-linejoin="round"/>
<path d="M36.3877 52.9292L31.5822 48.1236L36.3877 43.3181" stroke="#8F8129" stroke-width="3.06" stroke-linecap="round" stroke-linejoin="round"/>
<path d="M43.5961 36.1098L48.4016 31.3043L53.2072 36.1098" stroke="#8F8129" stroke-width="3.06" stroke-linecap="round" stroke-linejoin="round"/>
</svg>
