<svg width="49" height="49" viewBox="0 0 49 49" fill="none" xmlns="http://www.w3.org/2000/svg">
<g clip-path="url(#clip0_1083_83029)">
<path d="M24.1796 32.1099C28.1606 32.1099 31.3879 28.8826 31.3879 24.9016C31.3879 20.9206 28.1606 17.6933 24.1796 17.6933C20.1985 17.6933 16.9713 20.9206 16.9713 24.9016C16.9713 28.8826 20.1985 32.1099 24.1796 32.1099Z" stroke="#8F8129" stroke-width="3.06362" stroke-linecap="round" stroke-linejoin="round"/>
<path d="M36.1934 36.9154L30.1865 30.9084" stroke="#8F8129" stroke-width="3.06362" stroke-linecap="round" stroke-linejoin="round"/>
<path d="M19.3741 8.08226L24.1796 3.27673L28.9851 8.08226" stroke="#8F8129" stroke-width="3.06362" stroke-linecap="round" stroke-linejoin="round"/>
<path d="M40.9989 20.0961L45.8044 24.9016L40.9989 29.7071" stroke="#8F8129" stroke-width="2.4509" stroke-linecap="round" stroke-linejoin="round"/>
<path d="M7.36024 20.0961L2.55472 24.9016L7.36024 29.7071" stroke="#8F8129" stroke-width="2.4509" stroke-linecap="round" stroke-linejoin="round"/>
<path d="M19.3741 41.7209L24.1796 46.5265L28.9851 41.7209" stroke="#8F8129" stroke-width="2.4509" stroke-linecap="round" stroke-linejoin="round"/>
</g>
<defs>
<clipPath id="clip0_1083_83029">
<rect width="48.0552" height="48.0552" fill="white" transform="translate(0.1521 0.873962)"/>
</clipPath>
</defs>
</svg>
