<svg width="49" height="49" viewBox="0 0 49 49" fill="none" xmlns="http://www.w3.org/2000/svg">
<g clip-path="url(#clip0_1083_82990)">
<path d="M40.9989 22.4988V15.2905C40.9989 14.016 40.4926 12.7937 39.5914 11.8925C38.6902 10.9913 37.4679 10.485 36.1934 10.485H7.36021C6.08571 10.485 4.8634 10.9913 3.96219 11.8925C3.06098 12.7937 2.55469 14.016 2.55469 15.2905V27.3043C2.55469 28.5788 3.06098 29.8011 3.96219 30.7023C4.8634 31.6035 6.08571 32.1098 7.36021 32.1098H19.374" stroke="#8F8129" stroke-width="3.06362" stroke-linecap="round" stroke-linejoin="round"/>
<path d="M32.5891 39.3181C35.9066 39.3181 38.596 36.6287 38.596 33.3112C38.596 29.9937 35.9066 27.3043 32.5891 27.3043C29.2715 27.3043 26.5822 29.9937 26.5822 33.3112C26.5822 36.6287 29.2715 39.3181 32.5891 39.3181Z" stroke="#8F8129" stroke-width="3.06" stroke-linecap="round" stroke-linejoin="round"/>
<path d="M37.3946 38.1167L43.4015 44.1236" stroke="#8F8129" stroke-width="3.06" stroke-linecap="round" stroke-linejoin="round"/>
</g>
<defs>
<clipPath id="clip0_1083_82990">
<rect width="48.0552" height="48.0552" fill="white" transform="translate(0.152039 0.873962)"/>
</clipPath>
</defs>
</svg>
