<svg width="49" height="49" viewBox="0 0 49 49" fill="none" xmlns="http://www.w3.org/2000/svg">
<g clip-path="url(#clip0_1083_82853)">
<g clip-path="url(#clip1_1083_82853)">
<path d="M14.1315 10.4852H7.32208C6.03164 10.4852 4.79406 10.9978 3.88158 11.9103C2.96911 12.8227 2.45648 14.0603 2.45648 15.3508V22.1602C2.45648 23.4505 2.96827 24.6879 3.88132 25.6009L18.5766 40.2962C19.0284 40.7481 19.5648 41.1066 20.1552 41.3512C20.7456 41.5957 21.3783 41.7216 22.0174 41.7216C22.6564 41.7216 23.2892 41.5957 23.8795 41.3512C24.4699 41.1066 25.0063 40.7481 25.4581 40.2962L32.2676 33.4868C32.7194 33.035 33.0779 32.4986 33.3225 31.9082C33.567 31.3178 33.6929 30.6851 33.6929 30.0461C33.6929 29.407 33.567 28.7743 33.3225 28.1839C33.0779 27.5935 32.7194 27.0571 32.2676 26.6053L17.5699 11.91C16.6579 10.9982 15.4212 10.4857 14.1315 10.4852Z" stroke="#8F8129" stroke-width="3.06362" stroke-linecap="round" stroke-linejoin="round"/>
<path d="M37.4719 40.2963L44.2813 33.4868C44.7332 33.035 45.0917 32.4986 45.3363 31.9082C45.5808 31.3179 45.7067 30.6851 45.7067 30.0461C45.7067 29.4071 45.5808 28.7743 45.3363 28.1839C45.0917 27.5936 44.7332 27.0571 44.2813 26.6053L27.1809 9.50726" stroke="#8F8129" stroke-width="3.06362" stroke-linecap="round" stroke-linejoin="round"/>
<path d="M9.66471 17.6935H9.64069" stroke="#8F8129" stroke-width="3.06362" stroke-linecap="round" stroke-linejoin="round"/>
</g>
</g>
<defs>
<clipPath id="clip0_1083_82853">
<rect width="48.0552" height="48.0552" fill="white" transform="translate(0.053833 0.874146)"/>
</clipPath>
<clipPath id="clip1_1083_82853">
<rect width="57.6663" height="57.6663" fill="white" transform="translate(-4.75183 -3.9314)"/>
</clipPath>
</defs>
</svg>
