<svg width="49" height="49" viewBox="0 0 49 49" fill="none" xmlns="http://www.w3.org/2000/svg">
<g clip-path="url(#clip0_1083_82906)">
<path d="M45.8044 46.0756L31.3878 31.6591" stroke="#8F8129" stroke-width="3.06362" stroke-linecap="round" stroke-linejoin="round"/>
<path d="M3.25385 14.8469C4.09676 12.0218 5.66745 9.46792 7.80847 7.44118C9.94949 5.41444 12.5856 3.98607 15.4527 3.29924C19.4766 2.32531 23.7183 2.86515 27.37 4.81597C31.0218 6.76679 33.8286 9.99235 35.2562 13.8786" stroke="#8F8129" stroke-width="3.06" stroke-linecap="round" stroke-linejoin="round"/>
<path d="M36.1932 5.2287V14.8397H26.5822" stroke="#8F8129" stroke-width="3.06" stroke-linecap="round" stroke-linejoin="round"/>
<path d="M35.4845 24.4628C34.6394 27.2834 33.0685 29.8328 30.929 31.8559C28.7895 33.879 26.1564 35.305 23.2929 35.9912C19.2693 36.9645 15.0282 36.4243 11.377 34.4736C7.72581 32.5228 4.91933 29.2976 3.49176 25.4119" stroke="#8F8129" stroke-width="3.06" stroke-linecap="round" stroke-linejoin="round"/>
<path d="M2.55469 34.0618V24.4507H12.1657" stroke="#8F8129" stroke-width="3.06" stroke-linecap="round" stroke-linejoin="round"/>
</g>
<defs>
<clipPath id="clip0_1083_82906">
<rect width="48.0552" height="48.0552" fill="white" transform="translate(0.152039 0.423157)"/>
</clipPath>
</defs>
</svg>
