<svg width="28" height="28" viewBox="0 0 28 28" fill="none" xmlns="http://www.w3.org/2000/svg">
<path d="M0.200195 13.9992C0.200195 6.37769 6.37867 0.199219 14.0002 0.199219C21.6217 0.199219 27.8002 6.37769 27.8002 13.9992C27.8002 21.6207 21.6217 27.7992 14.0002 27.7992C6.37867 27.7992 0.200195 21.6207 0.200195 13.9992Z" fill="url(#paint0_linear_377_116454)"/>
<mask id="mask0_377_116454" style="mask-type:luminance" maskUnits="userSpaceOnUse" x="0" y="0" width="28" height="28">
<path fill-rule="evenodd" clip-rule="evenodd" d="M0.200195 13.9992C0.200195 6.37769 6.37867 0.199219 14.0002 0.199219C21.6217 0.199219 27.8002 6.37769 27.8002 13.9992C27.8002 21.6207 21.6217 27.7992 14.0002 27.7992C6.37867 27.7992 0.200195 21.6207 0.200195 13.9992Z" fill="white"/>
</mask>
<g mask="url(#mask0_377_116454)">
<path fill-rule="evenodd" clip-rule="evenodd" d="M14.0013 6.64062C12.0024 6.64062 11.7516 6.64937 10.9665 6.68509C10.183 6.72097 9.64814 6.84502 9.18016 7.02703C8.69608 7.21502 8.28545 7.46649 7.87635 7.87574C7.46695 8.28484 7.21548 8.69547 7.02688 9.17939C6.84441 9.64752 6.72021 10.1825 6.68494 10.9657C6.64983 11.7508 6.64062 12.0018 6.64062 14.0007C6.64062 15.9996 6.64952 16.2497 6.68509 17.0347C6.72113 17.8183 6.84517 18.3531 7.02703 18.8211C7.21517 19.3052 7.46664 19.7158 7.87589 20.1249C8.28484 20.5343 8.69547 20.7864 9.17924 20.9744C9.64752 21.1564 10.1825 21.2804 10.9659 21.3163C11.751 21.352 12.0017 21.3608 14.0004 21.3608C15.9994 21.3608 16.2495 21.352 17.0346 21.3163C17.8181 21.2804 18.3536 21.1564 18.8219 20.9744C19.3058 20.7864 19.7158 20.5343 20.1247 20.1249C20.5341 19.7158 20.7856 19.3052 20.9742 18.8212C21.1552 18.3531 21.2794 17.8181 21.3162 17.0349C21.3514 16.2498 21.3606 15.9996 21.3606 14.0007C21.3606 12.0018 21.3514 11.751 21.3162 10.9659C21.2794 10.1824 21.1552 9.64752 20.9742 9.17954C20.7856 8.69547 20.5341 8.28484 20.1247 7.87574C19.7153 7.46633 19.3059 7.21486 18.8214 7.02703C18.3522 6.84502 17.8171 6.72097 17.0335 6.68509C16.2484 6.64937 15.9985 6.64062 13.999 6.64062H14.0013ZM13.3411 7.96697C13.4693 7.96677 13.6072 7.96683 13.756 7.9669L14.0013 7.96697C15.9665 7.96697 16.1994 7.97403 16.9754 8.00929C17.693 8.04211 18.0825 8.16201 18.3419 8.26276C18.6854 8.39616 18.9303 8.55563 19.1877 8.81323C19.4453 9.07083 19.6048 9.31617 19.7385 9.65964C19.8392 9.91877 19.9593 10.3082 19.992 11.0259C20.0272 11.8017 20.0349 12.0348 20.0349 13.999C20.0349 15.9632 20.0272 16.1963 19.992 16.9722C19.9591 17.6898 19.8392 18.0793 19.7385 18.3384C19.6051 18.6819 19.4453 18.9264 19.1877 19.1839C18.9301 19.4415 18.6855 19.601 18.3419 19.7344C18.0828 19.8356 17.693 19.9552 16.9754 19.988C16.1995 20.0232 15.9665 20.0309 14.0013 20.0309C12.036 20.0309 11.8031 20.0232 11.0272 19.988C10.3096 19.9549 9.92015 19.8349 9.66056 19.7342C9.31709 19.6008 9.07175 19.4413 8.81415 19.1837C8.55655 18.9261 8.39708 18.6814 8.26337 18.3378C8.16263 18.0786 8.04257 17.6892 8.00991 16.9716C7.97464 16.1957 7.96759 15.9626 7.96759 13.9972C7.96759 12.0317 7.97464 11.7999 8.00991 11.024C8.04272 10.3064 8.16263 9.91693 8.26337 9.65749C8.39677 9.31402 8.55655 9.06868 8.81415 8.81108C9.07175 8.55348 9.31709 8.39401 9.66056 8.2603C9.92 8.1591 10.3096 8.0395 11.0272 8.00653C11.7062 7.97587 11.9693 7.96667 13.3411 7.96513V7.96697ZM17.0469 10.072C17.0469 9.5842 17.4425 9.18905 17.9301 9.18905V9.18875C18.4177 9.18875 18.8133 9.58435 18.8133 10.072C18.8133 10.5596 18.4177 10.9552 17.9301 10.9552C17.4425 10.9552 17.0469 10.5596 17.0469 10.072ZM14.0012 10.221C11.9139 10.2211 10.2216 11.9134 10.2216 14.0007C10.2216 16.088 11.914 17.7796 14.0013 17.7796C16.0887 17.7796 17.7804 16.088 17.7804 14.0007C17.7804 11.9134 16.0885 10.221 14.0012 10.221ZM16.4547 14.0007C16.4547 12.6457 15.3562 11.5473 14.0013 11.5473C12.6463 11.5473 11.548 12.6457 11.548 14.0007C11.548 15.3556 12.6463 16.4541 14.0013 16.4541C15.3562 16.4541 16.4547 15.3556 16.4547 14.0007Z" fill="#F9FAFB"/>
</g>
<defs>
<linearGradient id="paint0_linear_377_116454" x1="5.9502" y1="27.7992" x2="22.3377" y2="0.19922" gradientUnits="userSpaceOnUse">
<stop stop-color="#FEB344"/>
<stop offset="0.561028" stop-color="#F81D5A"/>
<stop offset="1" stop-color="#812BE1"/>
</linearGradient>
</defs>
</svg>
