<svg width="20" height="20" viewBox="0 0 20 20" fill="none" xmlns="http://www.w3.org/2000/svg">
<path d="M5.859 4H3.025C2.48794 4 1.97287 4.21335 1.59311 4.59311C1.21335 4.97287 1 5.48794 1 6.025V8.859C1 9.396 1.213 9.911 1.593 10.291L7.709 16.407C7.89704 16.5951 8.12029 16.7443 8.366 16.846C8.6117 16.9478 8.87505 17.0002 9.141 17.0002C9.40695 17.0002 9.6703 16.9478 9.91601 16.846C10.1617 16.7443 10.385 16.5951 10.573 16.407L13.407 13.573C13.5951 13.385 13.7443 13.1617 13.846 12.916C13.9478 12.6703 14.0002 12.407 14.0002 12.141C14.0002 11.875 13.9478 11.6117 13.846 11.366C13.7443 11.1203 13.5951 10.897 13.407 10.709L7.29 4.593C6.91044 4.2135 6.39574 4.00021 5.859 4Z" stroke="#6F7A82" stroke-width="2" stroke-linecap="round" stroke-linejoin="round"/>
<path d="M15.573 16.407L18.407 13.573C18.5951 13.385 18.7443 13.1617 18.846 12.916C18.9478 12.6703 19.0002 12.407 19.0002 12.141C19.0002 11.8751 18.9478 11.6117 18.846 11.366C18.7443 11.1203 18.5951 10.8971 18.407 10.709L11.29 3.59302" stroke="#6F7A82" stroke-width="2" stroke-linecap="round" stroke-linejoin="round"/>
<path d="M4.00001 7H3.99001" stroke="#6F7A82" stroke-width="2" stroke-linecap="round" stroke-linejoin="round"/>
</svg>
