<svg width="30" height="29" viewBox="0 0 30 29" fill="none" xmlns="http://www.w3.org/2000/svg">
<path d="M12.981 16.9C13.372 17.2991 13.8388 17.6162 14.3539 17.8327C14.869 18.0491 15.4222 18.1606 15.981 18.1606C16.5397 18.1606 17.0929 18.0491 17.608 17.8327C18.1231 17.6162 18.5899 17.2991 18.981 16.9L23.781 12.1C24.5766 11.3044 25.0236 10.2252 25.0236 9.1C25.0236 7.97478 24.5766 6.89565 23.781 6.1C22.9853 5.30435 21.9062 4.85736 20.781 4.85736C19.6557 4.85736 18.5766 5.30435 17.781 6.1L17.181 6.7" stroke="#545C62" stroke-width="1.5" stroke-linecap="round" stroke-linejoin="round"/>
<path d="M17.7809 12.1C17.3899 11.7009 16.9231 11.3838 16.408 11.1673C15.8928 10.9509 15.3397 10.8394 14.7809 10.8394C14.2222 10.8394 13.669 10.9509 13.1539 11.1673C12.6387 11.3838 12.172 11.7009 11.7809 12.1L6.98092 16.9C6.18527 17.6956 5.73828 18.7748 5.73828 19.9C5.73828 21.0252 6.18527 22.1043 6.98092 22.9C7.77657 23.6956 8.8557 24.1426 9.98092 24.1426C11.1061 24.1426 12.1853 23.6956 12.9809 22.9L13.5809 22.3" stroke="#545C62" stroke-width="1.5" stroke-linecap="round" stroke-linejoin="round"/>
</svg>
