<svg width="20" height="20" viewBox="0 0 20 20" fill="none" xmlns="http://www.w3.org/2000/svg">
<g clip-path="url(#clip0_1083_67846)">
<path d="M15.8333 3.33331H4.16667C3.24619 3.33331 2.5 4.07951 2.5 4.99998C2.5 5.92045 3.24619 6.66665 4.16667 6.66665H15.8333C16.7538 6.66665 17.5 5.92045 17.5 4.99998C17.5 4.07951 16.7538 3.33331 15.8333 3.33331Z" stroke="#4582C4" stroke-width="1.5" stroke-linecap="round" stroke-linejoin="round"/>
<path d="M4.16669 6.66669V15C4.16669 15.442 4.34228 15.866 4.65484 16.1785C4.9674 16.4911 5.39133 16.6667 5.83335 16.6667H14.1667C14.6087 16.6667 15.0326 16.4911 15.3452 16.1785C15.6578 15.866 15.8334 15.442 15.8334 15V6.66669" stroke="#4582C4" stroke-width="1.5" stroke-linecap="round" stroke-linejoin="round"/>
<path d="M8.33331 10H11.6666" stroke="#4582C4" stroke-width="1.5" stroke-linecap="round" stroke-linejoin="round"/>
</g>
<defs>
<clipPath id="clip0_1083_67846">
<rect width="20" height="20" fill="white"/>
</clipPath>
</defs>
</svg>
