<svg width="24" height="24" viewBox="0 0 24 24" fill="none" xmlns="http://www.w3.org/2000/svg">
<g clip-path="url(#clip0_2510_9172)">
<g clip-path="url(#clip1_2510_9172)">
<path d="M8.39961 10.8031C11.0506 10.8031 13.1996 8.65409 13.1996 6.00313C13.1996 3.35216 11.0506 1.20312 8.39961 1.20312C5.74864 1.20312 3.59961 3.35216 3.59961 6.00313C3.59961 8.65409 5.74864 10.8031 8.39961 10.8031Z" stroke="white" stroke-width="1.5" stroke-linecap="round" stroke-linejoin="round"/>
<path d="M1.19922 22.8016V20.4016C1.19922 19.1285 1.70493 17.9076 2.60511 17.0075C3.50528 16.1073 4.72618 15.6016 5.99922 15.6016H10.7992C12.0723 15.6016 13.2932 16.1073 14.1933 17.0075C15.0935 17.9076 15.5992 19.1285 15.5992 20.4016V22.8016" stroke="white" stroke-width="1.5" stroke-linecap="round" stroke-linejoin="round"/>
<path d="M16.7998 1.35938C17.8323 1.62374 18.7474 2.22422 19.401 3.06615C20.0545 3.90808 20.4092 4.94357 20.4092 6.00937C20.4092 7.07518 20.0545 8.11067 19.401 8.9526C18.7474 9.79453 17.8323 10.395 16.7998 10.6594" stroke="white" stroke-width="2" stroke-linecap="round" stroke-linejoin="round"/>
<path d="M22.7992 22.8013V20.4013C22.7931 19.3418 22.4367 18.3142 21.7855 17.4785C21.1344 16.6429 20.225 16.0461 19.1992 15.7812" stroke="white" stroke-width="2" stroke-linecap="round" stroke-linejoin="round"/>
</g>
</g>
<defs>
<clipPath id="clip0_2510_9172">
<rect width="24" height="24" fill="white"/>
</clipPath>
<clipPath id="clip1_2510_9172">
<rect width="28.8" height="28.8" fill="white" transform="translate(-2.40039 -2.39844)"/>
</clipPath>
</defs>
</svg>
