<svg width="46" height="46" viewBox="0 0 46 46" fill="none" xmlns="http://www.w3.org/2000/svg">
<path d="M41.9832 5.24922H3.8165C3.03409 5.24922 2.38525 4.60039 2.38525 3.81797C2.38525 3.03555 3.03409 2.38672 3.8165 2.38672H41.9832C42.7656 2.38672 43.4144 3.03555 43.4144 3.81797C43.4144 4.60039 42.7656 5.24922 41.9832 5.24922Z" fill="white"/>
<path d="M31.812 42.6319C31.5639 43.1281 31.0486 43.4143 30.5334 43.4143C30.3235 43.4143 30.0945 43.3571 29.9036 43.2617L22.9001 39.7694L15.8965 43.2617C15.7056 43.3571 15.4766 43.4143 15.2667 43.4143C14.7515 43.4143 14.2362 43.1281 13.9881 42.6319C13.9006 42.4634 13.848 42.2791 13.8333 42.0898C13.8187 41.9005 13.8423 41.7102 13.9029 41.5303C13.9635 41.3504 14.0597 41.1845 14.1858 41.0426C14.312 40.9007 14.4654 40.7857 14.637 40.7045L21.4688 37.2886V32.4414H24.3313V37.2886L31.1631 40.7045C31.8883 41.048 32.1746 41.9067 31.812 42.6319Z" fill="white"/>
<path d="M5.72461 26.9072V3.81641H40.0746V26.9072C40.0746 30.5331 38.1663 32.4414 34.5404 32.4414H11.2588C7.63294 32.4414 5.72461 30.5331 5.72461 26.9072Z" fill="white"/>
</svg>
