<svg width="28" height="28" viewBox="0 0 28 28" fill="none" xmlns="http://www.w3.org/2000/svg">
<path d="M0.200195 13.9992C0.200195 6.37769 6.37867 0.199219 14.0002 0.199219C21.6217 0.199219 27.8002 6.37769 27.8002 13.9992C27.8002 21.6207 21.6217 27.7992 14.0002 27.7992C6.37867 27.7992 0.200195 21.6207 0.200195 13.9992Z" fill="#55ACEE"/>
<path d="M13.5873 11.4173L13.6162 11.8948L13.1336 11.8363C11.3768 11.6122 9.84199 10.8521 8.53886 9.57545L7.90177 8.94202L7.73767 9.40979C7.39017 10.4525 7.61219 11.5537 8.33615 12.2943C8.72226 12.7036 8.63538 12.7621 7.96934 12.5185C7.73767 12.4405 7.53496 12.382 7.51566 12.4113C7.44809 12.4795 7.67975 13.3663 7.86316 13.7171C8.11413 14.2044 8.62573 14.6819 9.18559 14.9645L9.65858 15.1886L9.09872 15.1984C8.55816 15.1984 8.53886 15.2081 8.59677 15.4128C8.78983 16.0462 9.5524 16.7186 10.4018 17.011L11.0003 17.2156L10.4791 17.5275C9.70685 17.9758 8.79948 18.2291 7.89212 18.2486C7.45774 18.2584 7.10059 18.2973 7.10059 18.3266C7.10059 18.424 8.27823 18.9698 8.96358 19.1841C11.0196 19.8176 13.4618 19.5447 15.2958 18.463C16.599 17.6931 17.9021 16.1632 18.5102 14.6819C18.8384 13.8925 19.1666 12.4503 19.1666 11.7584C19.1666 11.3101 19.1956 11.2516 19.7361 10.7156C20.0547 10.4038 20.3539 10.0627 20.4118 9.96526C20.5083 9.7801 20.4987 9.7801 20.0064 9.94577C19.1859 10.2381 19.0701 10.1991 19.4755 9.76061C19.7747 9.44877 20.1319 8.88355 20.1319 8.71788C20.1319 8.68865 19.9871 8.73737 19.823 8.82508C19.6492 8.92253 19.2631 9.06871 18.9735 9.15641L18.4523 9.32208L17.9793 9.00049C17.7187 8.82508 17.3519 8.63018 17.1588 8.57171C16.6665 8.43527 15.9136 8.45476 15.4696 8.61069C14.263 9.04922 13.5004 10.1797 13.5873 11.4173Z" fill="white"/>
</svg>
