<svg width="20" height="20" viewBox="0 0 20 20" fill="none" xmlns="http://www.w3.org/2000/svg">
<g clip-path="url(#clip0_1761_45484)">
<path d="M11.1751 10.4357L16.4251 5.19403C16.582 5.03711 16.6702 4.82429 16.6702 4.60237C16.6702 4.38045 16.582 4.16762 16.4251 4.0107C16.2682 3.85378 16.0554 3.76562 15.8334 3.76562C15.6115 3.76562 15.3987 3.85378 15.2418 4.0107L10.0001 9.2607L4.75845 4.0107C4.60153 3.85378 4.3887 3.76562 4.16678 3.76562C3.94486 3.76562 3.73203 3.85378 3.57511 4.0107C3.41819 4.16762 3.33004 4.38045 3.33004 4.60237C3.33004 4.82429 3.41819 5.03711 3.57511 5.19403L8.82511 10.4357L3.57511 15.6774C3.497 15.7548 3.43501 15.847 3.3927 15.9486C3.3504 16.0501 3.32861 16.159 3.32861 16.269C3.32861 16.379 3.3504 16.488 3.3927 16.5895C3.43501 16.6911 3.497 16.7832 3.57511 16.8607C3.65258 16.9388 3.74475 17.0008 3.8463 17.0431C3.94785 17.0854 4.05677 17.1072 4.16678 17.1072C4.27679 17.1072 4.38571 17.0854 4.48726 17.0431C4.58881 17.0008 4.68098 16.9388 4.75845 16.8607L10.0001 11.6107L15.2418 16.8607C15.3192 16.9388 15.4114 17.0008 15.513 17.0431C15.6145 17.0854 15.7234 17.1072 15.8334 17.1072C15.9435 17.1072 16.0524 17.0854 16.1539 17.0431C16.2555 17.0008 16.3476 16.9388 16.4251 16.8607C16.5032 16.7832 16.5652 16.6911 16.6075 16.5895C16.6498 16.488 16.6716 16.379 16.6716 16.269C16.6716 16.159 16.6498 16.0501 16.6075 15.9486C16.5652 15.847 16.5032 15.7548 16.4251 15.6774L11.1751 10.4357Z" fill="#6F7A82"/>
<path d="M11.1751 10.4357L16.4251 5.19403C16.582 5.03711 16.6702 4.82429 16.6702 4.60237C16.6702 4.38045 16.582 4.16762 16.4251 4.0107C16.2682 3.85378 16.0554 3.76562 15.8334 3.76562C15.6115 3.76562 15.3987 3.85378 15.2418 4.0107L10.0001 9.2607L4.75845 4.0107C4.60153 3.85378 4.3887 3.76562 4.16678 3.76562C3.94486 3.76562 3.73203 3.85378 3.57511 4.0107C3.41819 4.16762 3.33004 4.38045 3.33004 4.60237C3.33004 4.82429 3.41819 5.03711 3.57511 5.19403L8.82511 10.4357L3.57511 15.6774C3.497 15.7548 3.43501 15.847 3.3927 15.9486C3.3504 16.0501 3.32861 16.159 3.32861 16.269C3.32861 16.379 3.3504 16.488 3.3927 16.5895C3.43501 16.6911 3.497 16.7832 3.57511 16.8607C3.65258 16.9388 3.74475 17.0008 3.8463 17.0431C3.94785 17.0854 4.05677 17.1072 4.16678 17.1072C4.27679 17.1072 4.38571 17.0854 4.48726 17.0431C4.58881 17.0008 4.68098 16.9388 4.75845 16.8607L10.0001 11.6107L15.2418 16.8607C15.3192 16.9388 15.4114 17.0008 15.513 17.0431C15.6145 17.0854 15.7234 17.1072 15.8334 17.1072C15.9435 17.1072 16.0524 17.0854 16.1539 17.0431C16.2555 17.0008 16.3476 16.9388 16.4251 16.8607C16.5032 16.7832 16.5652 16.6911 16.6075 16.5895C16.6498 16.488 16.6716 16.379 16.6716 16.269C16.6716 16.159 16.6498 16.0501 16.6075 15.9486C16.5652 15.847 16.5032 15.7548 16.4251 15.6774L11.1751 10.4357Z" stroke="#6F7A82"/>
</g>
<defs>
<clipPath id="clip0_1761_45484">
<rect width="20" height="20" fill="white"/>
</clipPath>
</defs>
</svg>
