<svg width="100" height="84" viewBox="0 0 100 84" fill="none" xmlns="http://www.w3.org/2000/svg">
<rect width="100" height="84" rx="12" fill="#F3F5F6"/>
<rect x="24" y="16" width="52" height="52" rx="26" fill="white"/>
<g clip-path="url(#clip0_97_34436)">
<g clip-path="url(#clip1_97_34436)">
<path d="M59.3333 40.6667V36.6667C59.3333 35.9594 59.0524 35.2811 58.5523 34.781C58.0522 34.281 57.3739 34 56.6667 34H40.6667C39.9594 34 39.2811 34.281 38.781 34.781C38.281 35.2811 38 35.9594 38 36.6667V43.3333C38 44.0406 38.281 44.7189 38.781 45.219C39.2811 45.719 39.9594 46 40.6667 46H47.3333" stroke="#0E6E8B" stroke-width="2.5" stroke-linecap="round" stroke-linejoin="round"/>
<path d="M54.6668 50C56.5078 50 58.0002 48.5077 58.0002 46.6667C58.0002 44.8258 56.5078 43.3334 54.6668 43.3334C52.8259 43.3334 51.3335 44.8258 51.3335 46.6667C51.3335 48.5077 52.8259 50 54.6668 50Z" stroke="#0E6E8B" stroke-width="2.5" stroke-linecap="round" stroke-linejoin="round"/>
<path d="M57.3335 49.3334L60.6668 52.6667" stroke="#0E6E8B" stroke-width="2.5" stroke-linecap="round" stroke-linejoin="round"/>
</g>
</g>
<defs>
<clipPath id="clip0_97_34436">
<rect width="32" height="32" fill="white" transform="translate(34 26)"/>
</clipPath>
<clipPath id="clip1_97_34436">
<rect width="32" height="32" fill="white" transform="translate(34 26)"/>
</clipPath>
</defs>
</svg>
