<svg width="100" height="84" viewBox="0 0 100 84" fill="none" xmlns="http://www.w3.org/2000/svg">
<rect width="100" height="84" rx="12" fill="#F3F5F6"/>
<rect x="24" y="16" width="52" height="52" rx="26" fill="white"/>
<g clip-path="url(#clip0_97_34508)">
<g clip-path="url(#clip1_97_34508)">
<path d="M46 46V39.5C46 39.1022 46.158 38.7206 46.4393 38.4393C46.7206 38.158 47.1022 38 47.5 38H52.5C52.8978 38 53.2794 38.158 53.5607 38.4393C53.842 38.7206 54 39.1022 54 39.5V42.5C54 42.8978 53.842 43.2794 53.5607 43.5607C53.2794 43.842 52.8978 44 52.5 44H48L46 46Z" stroke="#0E6E8B" stroke-width="2" stroke-linecap="round" stroke-linejoin="round"/>
<path d="M48.75 40.75H48.7566" stroke="#0E6E8B" stroke-linecap="round" stroke-linejoin="round"/>
<path d="M51.5 40.75H51.5066" stroke="#0E6E8B" stroke-linecap="round" stroke-linejoin="round"/>
<path d="M47.3335 32.6667L50.0002 30L52.6668 32.6667" stroke="#0E6E8B" stroke-width="2.5" stroke-linecap="round" stroke-linejoin="round"/>
<path d="M59.3335 39.3334L62.0002 42L59.3335 44.6667" stroke="#0E6E8B" stroke-width="2.5" stroke-linecap="round" stroke-linejoin="round"/>
<path d="M40.6667 39.3334L38 42L40.6667 44.6667" stroke="#0E6E8B" stroke-width="2.5" stroke-linecap="round" stroke-linejoin="round"/>
<path d="M47.3335 51.3334L50.0002 54L52.6668 51.3334" stroke="#0E6E8B" stroke-width="2.5" stroke-linecap="round" stroke-linejoin="round"/>
</g>
</g>
<defs>
<clipPath id="clip0_97_34508">
<rect width="32" height="32" fill="white" transform="translate(34 26)"/>
</clipPath>
<clipPath id="clip1_97_34508">
<rect width="32" height="32" fill="white" transform="translate(34 26)"/>
</clipPath>
</defs>
</svg>
