<svg width="100" height="84" viewBox="0 0 100 84" fill="none" xmlns="http://www.w3.org/2000/svg">
<rect width="100" height="84" rx="12" fill="#F3F5F6"/>
<rect x="24" y="16" width="52" height="52" rx="26" fill="white"/>
<g clip-path="url(#clip0_97_34455)">
<g clip-path="url(#clip1_97_34455)">
<path d="M62 54L54 46" stroke="#0E6E8B" stroke-width="2.5" stroke-linecap="round" stroke-linejoin="round"/>
<path d="M38.3882 36.6707C38.8559 35.103 39.7275 33.6858 40.9156 32.5611C42.1037 31.4365 43.5665 30.6439 45.1575 30.2627C47.3905 29.7223 49.7442 30.0218 51.7707 31.1044C53.7971 32.1869 55.3546 33.9768 56.1469 36.1334" stroke="#0E6E8B" stroke-width="2.5" stroke-linecap="round" stroke-linejoin="round"/>
<path d="M56.6668 31.3334V36.6667H51.3335" stroke="#0E6E8B" stroke-width="2.5" stroke-linecap="round" stroke-linejoin="round"/>
<path d="M56.2734 42.0067C55.8043 43.5719 54.9326 44.9866 53.7454 46.1093C52.5582 47.2319 51.097 48.0232 49.508 48.404C47.2752 48.9441 44.9218 48.6444 42.8957 47.5619C40.8696 46.4794 39.3122 44.6896 38.52 42.5334" stroke="#0E6E8B" stroke-width="2.5" stroke-linecap="round" stroke-linejoin="round"/>
<path d="M38 47.3333V42H43.3333" stroke="#0E6E8B" stroke-width="2" stroke-linecap="round" stroke-linejoin="round"/>
</g>
</g>
<defs>
<clipPath id="clip0_97_34455">
<rect width="32" height="32" fill="white" transform="translate(34 26)"/>
</clipPath>
<clipPath id="clip1_97_34455">
<rect width="32" height="32" fill="white" transform="translate(34 26)"/>
</clipPath>
</defs>
</svg>
