<svg version="1.2" xmlns="http://www.w3.org/2000/svg" viewBox="0 0 65 66" width="65" height="66"><defs><clipPath clipPathUnits="userSpaceOnUse" id="cp1"><path d="m20 22h24v24h-24z"/></clipPath></defs><style>.a{fill:#4582c4}.b{fill:none;stroke:#fff;stroke-linecap:round;stroke-linejoin:round;stroke-width:2}</style><path class="a" d="m32 56c-12.2 0-22-9.8-22-22 0-12.2 9.8-22 22-22 12.2 0 22 9.8 22 22 0 12.2-9.8 22-22 22z"/><g clip-path="url(#cp1)"><path fill-rule="evenodd" class="b" d="m34 25v4q0 0.4 0.3 0.7 0.3 0.3 0.7 0.3h4"/><path fill-rule="evenodd" class="b" d="m37 43h-10c-0.5 0-1-0.2-1.4-0.6-0.4-0.4-0.6-0.9-0.6-1.4v-14c0-0.5 0.2-1 0.6-1.4 0.4-0.4 0.9-0.6 1.4-0.6h7l5 5v11c0 0.5-0.2 1-0.6 1.4-0.4 0.4-0.9 0.6-1.4 0.6z"/><path fill-rule="evenodd" class="b" d="m29 39h6"/><path fill-rule="evenodd" class="b" d="m29 35h6"/></g></svg>