<svg width="24" height="24" viewBox="0 0 24 24" fill="none" xmlns="http://www.w3.org/2000/svg">
<g clip-path="url(#clip0_238_105205)">
<path d="M15.0002 7.00003L8.50019 13.5C8.10237 13.8979 7.87887 14.4374 7.87887 15C7.87887 15.5626 8.10237 16.1022 8.50019 16.5C8.89802 16.8979 9.43758 17.1213 10.0002 17.1213C10.5628 17.1213 11.1024 16.8979 11.5002 16.5L18.0002 10C18.7958 9.20438 19.2428 8.12524 19.2428 7.00003C19.2428 5.87481 18.7958 4.79568 18.0002 4.00003C17.2045 3.20438 16.1254 2.75739 15.0002 2.75739C13.875 2.75739 12.7958 3.20438 12.0002 4.00003L5.50019 10.5C4.30672 11.6935 3.63623 13.3122 3.63623 15C3.63623 16.6879 4.30672 18.3066 5.50019 19.5C6.69367 20.6935 8.31236 21.364 10.0002 21.364C11.688 21.364 13.3067 20.6935 14.5002 19.5L21.0002 13" stroke="#212121" stroke-width="2" stroke-linecap="round" stroke-linejoin="round"/>
</g>
<defs>
<clipPath id="clip0_238_105205">
<rect width="24" height="24" fill="white"/>
</clipPath>
</defs>
</svg>
