<svg width="47" height="46" viewBox="0 0 47 46" fill="none" xmlns="http://www.w3.org/2000/svg">
<circle cx="23.3281" cy="23" r="22.75" stroke="#05252E" stroke-width="0.5"/>
<path fill-rule="evenodd" clip-rule="evenodd" d="M16.4596 14.25H23.217C26.0426 14.25 28.0155 16.1972 28.0155 18.9867V27.0133C28.0155 29.8028 26.0438 31.75 23.217 31.75H16.4596C13.634 31.75 11.6611 29.8028 11.6611 27.0133V18.9867C11.6611 16.1983 13.634 14.25 16.4596 14.25ZM32.6121 17.0255C33.1243 16.7653 33.7251 16.7922 34.214 17.1002C34.7028 17.407 34.9945 17.9402 34.9945 18.5235V27.4777C34.9945 28.061 34.7028 28.5942 34.214 28.901C33.9763 29.0518 33.7034 29.1379 33.4222 29.1508C33.1411 29.1637 32.8614 29.1029 32.611 28.9745L30.8831 28.1018C30.5697 27.9426 30.3067 27.6993 30.1237 27.399C29.9408 27.0988 29.845 26.7536 29.8471 26.402V19.5968C29.8471 18.8723 30.2438 18.2202 30.8831 17.8982L32.6121 17.0255Z" fill="#05252E"/>
</svg>
