<svg width="28" height="22" viewBox="0 0 28 22" fill="none" xmlns="http://www.w3.org/2000/svg">
<path fill-rule="evenodd" clip-rule="evenodd" d="M9.28321 8.16325C9.30285 7.4431 9.65886 6.10187 10.5418 4.96311C11.383 3.87815 12.6784 2.9987 14.6666 2.9987C16.5797 2.9987 17.8613 3.94432 18.7213 5.27407C19.6135 6.65368 20 8.39294 20 9.66536C20 10.0301 20.1494 10.3789 20.4134 10.6305C20.6774 10.8822 21.033 11.0147 21.3973 10.9972C22.6687 10.936 24.6666 12.3215 24.6666 14.9987C24.6666 16.8611 23.9374 17.7564 23.1186 18.2611C22.1974 18.8288 20.9877 18.9987 20 18.9987H7.95037C7.13578 18.9987 5.98388 18.8841 5.05879 18.2509C4.22827 17.6825 3.33329 16.5238 3.33329 13.8705C3.33329 11.8705 5.2042 9.46024 7.95037 9.46024C8.67259 9.46024 9.26352 8.88521 9.28321 8.16325ZM14.6666 0.332031C11.7458 0.332031 9.71035 1.68335 8.43432 3.32916C7.54679 4.4739 7.01432 5.77247 6.77221 6.88759C3.07563 7.48719 0.666626 10.8476 0.666626 13.8705C0.666626 17.2172 1.85429 19.2892 3.5527 20.4516C5.15653 21.5492 6.97985 21.6654 7.95037 21.6654H20C21.194 21.6654 22.9844 21.4763 24.5177 20.5312C26.1534 19.523 27.3333 17.7517 27.3333 14.9987C27.3333 11.5984 25.1041 9.048 22.5911 8.45794C22.4121 6.97734 21.9045 5.28551 20.9605 3.82589C19.7144 1.89923 17.6626 0.332031 14.6666 0.332031ZM10.5333 14.0654C9.94419 13.6235 9.8248 12.7878 10.2666 12.1987C10.7085 11.6096 11.5442 11.4902 12.1333 11.932L12.6666 12.332L12.6666 8.9987C12.6666 8.26232 13.2636 7.66536 14 7.66536C14.7363 7.66536 15.3333 8.26232 15.3333 8.9987L15.3333 12.332L15.8666 11.932C16.4557 11.4902 17.2915 11.6096 17.7333 12.1987C18.1751 12.7878 18.0557 13.6235 17.4666 14.0654L14.8 16.0654C14.3259 16.4209 13.674 16.4209 13.2 16.0654L10.5333 14.0654Z" fill="#6497CE"/>
</svg>
