<svg width="16" height="16" viewBox="0 0 16 16" fill="none" xmlns="http://www.w3.org/2000/svg">
<path d="M12.8008 4.79688H6.40078C5.51713 4.79688 4.80078 5.51322 4.80078 6.39688V12.7969C4.80078 13.6805 5.51713 14.3969 6.40078 14.3969H12.8008C13.6844 14.3969 14.4008 13.6805 14.4008 12.7969V6.39688C14.4008 5.51322 13.6844 4.79688 12.8008 4.79688Z" stroke="#6497CE" stroke-width="1.5" stroke-linecap="round" stroke-linejoin="round"/>
<path d="M11.2006 4.79766V3.19766C11.2006 2.77331 11.032 2.36634 10.732 2.06629C10.4319 1.76623 10.0249 1.59766 9.60059 1.59766H3.20059C2.77624 1.59766 2.36927 1.76623 2.06922 2.06629C1.76916 2.36634 1.60059 2.77331 1.60059 3.19766V9.59766C1.60059 10.022 1.76916 10.429 2.06922 10.729C2.36927 11.0291 2.77624 11.1977 3.20059 11.1977H4.80059" stroke="#6497CE" stroke-width="1.5" stroke-linecap="round" stroke-linejoin="round"/>
</svg>
