<svg version="1.2" xmlns="http://www.w3.org/2000/svg" viewBox="0 0 30 30" width="100" height="100"><style>.a{fill:none;stroke:#545c62;stroke-linecap:round;stroke-linejoin:round;stroke-width:2}.b{fill:none;stroke:#545c62;stroke-linecap:round;stroke-linejoin:round}.c{fill:none;stroke:#545c62;stroke-linecap:round;stroke-linejoin:round;stroke-width:2.5}</style><path fill-rule="evenodd" class="a" d="m11 19v-6.5c0-0.4 0.2-0.8 0.4-1.1 0.3-0.2 0.7-0.4 1.1-0.4h5c0.4 0 0.8 0.2 1.1 0.4 0.2 0.3 0.4 0.7 0.4 1.1v3c0 0.4-0.2 0.8-0.4 1.1-0.3 0.2-0.7 0.4-1.1 0.4h-4.5z"/><path fill-rule="evenodd" class="b" d="m13.8 13.8v-0.1"/><path fill-rule="evenodd" class="b" d="m16.5 13.8v-0.1"/><path fill-rule="evenodd" class="c" d="m12.3 5.7l2.7-2.7 2.7 2.7"/><path fill-rule="evenodd" class="c" d="m24.3 12.3l2.7 2.7-2.7 2.7"/><path fill-rule="evenodd" class="c" d="m5.7 12.3l-2.7 2.7 2.7 2.7"/><path fill-rule="evenodd" class="c" d="m12.3 24.3l2.7 2.7 2.7-2.7"/></svg>