<svg width="21" height="20" viewBox="0 0 21 20" fill="none" xmlns="http://www.w3.org/2000/svg">
<g clip-path="url(#clip0_1712_14671)">
<g clip-path="url(#clip1_1712_14671)">
<path d="M18.5 9.00001C18.2554 7.24023 17.4391 5.60967 16.1766 4.35951C14.9142 3.10934 13.2758 2.30893 11.5137 2.08156C9.75159 1.8542 7.96362 2.21249 6.4252 3.10126C4.88678 3.99002 3.68325 5.35995 3 7.00001M2.5 3.00001V7.00001H6.5" stroke="white" stroke-width="2" stroke-linecap="round" stroke-linejoin="round"/>
<path d="M2.5 11C2.74456 12.7598 3.56093 14.3903 4.82336 15.6405C6.08579 16.8907 7.72424 17.6911 9.48633 17.9184C11.2484 18.1458 13.0364 17.7875 14.5748 16.8988C16.1132 16.01 17.3168 14.6401 18 13M18.5 17V13H14.5" stroke="white" stroke-width="2" stroke-linecap="round" stroke-linejoin="round"/>
</g>
</g>
<defs>
<clipPath id="clip0_1712_14671">
<rect width="20" height="20" fill="white" transform="translate(0.5)"/>
</clipPath>
<clipPath id="clip1_1712_14671">
<rect width="24" height="24" fill="white" transform="translate(-1.5 -2)"/>
</clipPath>
</defs>
</svg>
