<svg width="18" height="18" viewBox="0 0 18 18" fill="none" xmlns="http://www.w3.org/2000/svg">
<path fill-rule="evenodd" clip-rule="evenodd" d="M7.07318 17.7216C7.68186 18.0815 8.43535 18.0932 9.05494 17.7524L10.8731 16.7524C11.5122 16.4009 11.9093 15.7294 11.9093 15L11.9093 8.70858L17.3865 3.44161C17.9747 2.87597 18.1602 2.00969 17.8553 1.25274C17.5504 0.49579 16.8162 -4.37237e-07 16.0002 -5.08579e-07L2.00019 1.74851e-07C1.18414 1.0351e-07 0.449934 0.495792 0.145034 1.25274C-0.159866 2.00969 0.0256996 2.87597 0.613912 3.44161L6.0911 8.70858L6.0911 16C6.0911 16.7071 6.4645 17.3617 7.07318 17.7216ZM9.90928 15L8.0911 16L8.0911 8.28286C8.0911 8.10262 8.04244 7.92752 7.95256 7.77504C7.90681 7.69742 7.85037 7.62566 7.78424 7.56206L2.00019 2L16.0002 2L10.2161 7.56206C10.15 7.62566 10.0936 7.69742 10.0478 7.77504C9.95794 7.92752 9.90928 8.10262 9.90928 8.28286L9.90928 15Z" fill="#3C3D3C"/>
</svg>
