<svg width="20" height="20" viewBox="0 0 20 20" fill="none" xmlns="http://www.w3.org/2000/svg">
<path d="M3.49999 3H16.5C16.644 3.05051 16.7745 3.13331 16.8816 3.24206C16.9887 3.35082 17.0695 3.48264 17.1177 3.62742C17.166 3.77221 17.1805 3.92612 17.1601 4.07737C17.1396 4.22861 17.0849 4.37318 17 4.5L12 10V17L7.99999 14V10L2.99999 4.5C2.91508 4.37318 2.86032 4.22861 2.83991 4.07737C2.81951 3.92612 2.83399 3.77221 2.88225 3.62742C2.93051 3.48264 3.01127 3.35082 3.11835 3.24206C3.22542 3.13331 3.35597 3.05051 3.49999 3Z" stroke="#545C62" stroke-width="2" stroke-linecap="round" stroke-linejoin="round"/>
</svg>
