<svg width="82" height="72" viewBox="0 0 82 72" fill="none" xmlns="http://www.w3.org/2000/svg">
<rect x="0.534943" y="0.562592" width="80.3797" height="70.5761" rx="14.4554" fill="#05252E" fill-opacity="0.1"/>
<path opacity="0.4" d="M53.7452 32.3247V48.0013C53.7452 51.4734 52.8772 53.2095 48.537 53.2095H32.9125C28.5724 53.2095 27.7044 51.4734 27.7044 48.0013V32.3247C27.9821 32.3595 28.2773 32.3768 28.5724 32.3768H52.8772C53.1723 32.3768 53.4674 32.3595 53.7452 32.3247Z" fill="#09495D"/>
<path d="M58.0853 23.6983V27.1704C58.0853 30.3474 56.6444 32.0661 53.7452 32.3265C53.4674 32.3612 53.1723 32.3785 52.8771 32.3785H28.5724C28.2773 32.3785 27.9821 32.3612 27.7044 32.3265C24.8052 32.0661 23.3642 30.3474 23.3642 27.1704V23.6983C23.3642 20.2262 25.1003 18.4901 28.5724 18.4901H52.8771C56.3492 18.4901 58.0853 20.2262 58.0853 23.6983Z" fill="#09495D"/>
<path d="M43.8844 40.6248H37.5652C36.8534 40.6248 36.2631 40.0345 36.2631 39.3227C36.2631 38.6109 36.8534 38.0207 37.5652 38.0207H43.8844C44.5962 38.0207 45.1864 38.6109 45.1864 39.3227C45.1864 40.0345 44.5962 40.6248 43.8844 40.6248Z" fill="#09495D"/>
<rect x="0.534943" y="0.562592" width="80.3797" height="70.5761" rx="14.4554" stroke="#1293BA" stroke-width="0.5"/>
</svg>
