<svg width="20" height="20" viewBox="0 0 20 20" fill="none" xmlns="http://www.w3.org/2000/svg">
<path d="M8 15C11.866 15 15 11.866 15 8C15 4.13401 11.866 1 8 1C4.13401 1 1 4.13401 1 8C1 11.866 4.13401 15 8 15Z" stroke="#6F7A82" stroke-width="2" stroke-linecap="round" stroke-linejoin="round"/>
<path d="M19 19L13 13" stroke="#6F7A82" stroke-width="2" stroke-linecap="round" stroke-linejoin="round"/>
<path d="M8 11V11.01" stroke="#6F7A82" stroke-width="2" stroke-linecap="round" stroke-linejoin="round"/>
<path d="M7.99999 8C8.25169 8.00013 8.49938 7.93691 8.72023 7.81618C8.94109 7.69545 9.12802 7.52108 9.26379 7.30914C9.39957 7.0972 9.47983 6.85449 9.49717 6.60339C9.51452 6.35228 9.4684 6.10085 9.36307 5.87225C9.25773 5.64365 9.09656 5.44523 8.8944 5.29527C8.69225 5.14532 8.45561 5.04864 8.20628 5.01415C7.95695 4.97966 7.70295 5.00847 7.46768 5.09791C7.23241 5.18736 7.02342 5.33458 6.85999 5.526" stroke="#6F7A82" stroke-width="2" stroke-linecap="round" stroke-linejoin="round"/>
</svg>
