<svg width="20" height="20" viewBox="0 0 20 20" fill="none" xmlns="http://www.w3.org/2000/svg">
<g clip-path="url(#clip0_1940_65833)">
<g clip-path="url(#clip1_1940_65833)">
<path d="M4.16663 10.8334V11.5625C4.16663 14.3817 6.40496 16.6667 9.16663 16.6667" stroke="#6F7A82" stroke-width="1.5" stroke-linecap="round" stroke-linejoin="round"/>
<path d="M5 7.5C6.38071 7.5 7.5 6.38071 7.5 5C7.5 3.61929 6.38071 2.5 5 2.5C3.61929 2.5 2.5 3.61929 2.5 5C2.5 6.38071 3.61929 7.5 5 7.5Z" stroke="#6F7A82" stroke-width="1.5" stroke-linecap="round" stroke-linejoin="round"/>
<path d="M15 17.5C16.3807 17.5 17.5 16.3807 17.5 15C17.5 13.6193 16.3807 12.5 15 12.5C13.6193 12.5 12.5 13.6193 12.5 15C12.5 16.3807 13.6193 17.5 15 17.5Z" stroke="#6F7A82" stroke-width="1.5" stroke-linecap="round" stroke-linejoin="round"/>
<path d="M13.3334 7.5L15 9.16667L16.6667 7.5" stroke="#6F7A82" stroke-width="1.5" stroke-linecap="round" stroke-linejoin="round"/>
<path d="M15 8.33333V7.60417C15 4.785 12.7617 2.5 10 2.5" stroke="#6F7A82" stroke-width="1.5" stroke-linecap="round" stroke-linejoin="round"/>
<path d="M2.5 12.5L4.16667 10.8334L5.83333 12.5" stroke="#6F7A82" stroke-width="1.5" stroke-linecap="round" stroke-linejoin="round"/>
</g>
</g>
<defs>
<clipPath id="clip0_1940_65833">
<rect width="20" height="20" fill="white"/>
</clipPath>
<clipPath id="clip1_1940_65833">
<rect width="20" height="20" fill="white"/>
</clipPath>
</defs>
</svg>
