<svg width="20" height="20" viewBox="0 0 20 20" fill="none" xmlns="http://www.w3.org/2000/svg">
<path d="M8 4H5C4.46957 4 3.96086 4.21071 3.58579 4.58579C3.21071 4.96086 3 5.46957 3 6V15C3 15.5304 3.21071 16.0391 3.58579 16.4142C3.96086 16.7893 4.46957 17 5 17H14C14.5304 17 15.0391 16.7893 15.4142 16.4142C15.7893 16.0391 16 15.5304 16 15V12" stroke="#4582C4" stroke-width="2" stroke-linecap="round" stroke-linejoin="round"/>
<path d="M15 8C16.6569 8 18 6.65685 18 5C18 3.34315 16.6569 2 15 2C13.3431 2 12 3.34315 12 5C12 6.65685 13.3431 8 15 8Z" stroke="#4582C4" stroke-width="2" stroke-linecap="round" stroke-linejoin="round"/>
</svg>
