<svg width="40" height="40" viewBox="0 0 40 40" fill="none" xmlns="http://www.w3.org/2000/svg">
<path d="M31.24 17.4992C30.8316 17.4992 30.4399 17.337 30.1511 17.0482C29.8622 16.7594 29.7 16.3677 29.7 15.9592C29.7 15.2192 28.96 13.6792 27.72 12.3392C26.5 11.0392 25.16 10.2792 24.04 10.2792C23.6316 10.2792 23.2399 10.117 22.9511 9.82816C22.6622 9.53936 22.5 9.14765 22.5 8.73922C22.5 7.89922 23.2 7.19922 24.04 7.19922C26.04 7.19922 28.14 8.27922 29.98 10.2192C31.7 12.0392 32.8 14.2992 32.8 15.9392C32.8 16.7992 32.1 17.4992 31.24 17.4992Z" fill="white"/>
<path d="M38.46 17.5C38.0516 17.5 37.6599 17.3378 37.3711 17.0489C37.0823 16.7601 36.92 16.3684 36.92 15.96C36.92 8.86 31.14 3.1 24.06 3.1C23.6516 3.1 23.2599 2.93775 22.9711 2.64894C22.6823 2.36014 22.52 1.96843 22.52 1.56C22.52 0.72 23.2 0 24.04 0C32.84 0 40 7.16 40 15.96C40 16.8 39.3 17.5 38.46 17.5Z" fill="white"/>
<path opacity="0.4" d="M19.58 24.42L13.04 30.96C12.32 30.32 11.62 29.66 10.94 28.98C8.91754 26.944 7.0522 24.7578 5.36 22.44C3.72 20.16 2.4 17.88 1.44 15.62C0.48 13.34 0 11.16 0 9.08C0 7.72 0.24 6.42 0.72 5.22C1.2 4 1.96 2.88 3.02 1.88C4.3 0.62 5.7 0 7.18 0C7.74 0 8.3 0.12 8.8 0.36C9.32 0.6 9.78 0.96 10.14 1.48L14.78 8.02C15.14 8.52 15.4 8.98 15.58 9.42C15.76 9.84 15.86 10.26 15.86 10.64C15.86 11.12 15.72 11.6 15.44 12.06C15.18 12.52 14.8 13 14.32 13.48L12.8 15.06C12.58 15.28 12.48 15.54 12.48 15.86C12.48 16.02 12.5 16.16 12.54 16.32C12.6 16.48 12.66 16.6 12.7 16.72C13.06 17.38 13.68 18.24 14.56 19.28C15.46 20.32 16.42 21.38 17.46 22.44C18.18 23.14 18.88 23.82 19.58 24.42Z" fill="white"/>
<path d="M39.9402 32.6581C39.9375 33.4129 39.7667 34.1576 39.4402 34.8381C39.1002 35.5581 38.6602 36.2381 38.0802 36.8781C37.1002 37.9581 36.0202 38.7381 34.8002 39.2381C34.7802 39.2381 34.7602 39.2581 34.7402 39.2581C33.5602 39.7381 32.2802 39.9981 30.9002 39.9981C28.8602 39.9981 26.6802 39.5181 24.3802 38.5381C22.0802 37.5581 19.7802 36.2381 17.5002 34.5781C16.7202 33.9981 15.9402 33.4181 15.2002 32.7981L21.7402 26.2581C22.3002 26.6781 22.8002 26.9981 23.2202 27.2181C23.3202 27.2581 23.4402 27.3181 23.5802 27.3781C23.7402 27.4381 23.9002 27.4581 24.0802 27.4581C24.4202 27.4581 24.6802 27.3381 24.9002 27.1181L26.4202 25.6181C26.9202 25.1181 27.4002 24.7381 27.8602 24.4981C28.3202 24.2181 28.7802 24.0781 29.2802 24.0781C29.6602 24.0781 30.0602 24.1581 30.5002 24.3381C30.9402 24.5181 31.4002 24.7781 31.9002 25.1181L38.5202 29.8181C39.0402 30.1781 39.4002 30.5981 39.6202 31.0981C39.8202 31.5981 39.9402 32.0981 39.9402 32.6581Z" fill="white"/>
</svg>
