<svg width="28" height="28" viewBox="0 0 28 28" fill="none" xmlns="http://www.w3.org/2000/svg">
<path d="M14.0002 27.7992C21.6217 27.7992 27.8002 21.6207 27.8002 13.9992C27.8002 6.37769 21.6217 0.199219 14.0002 0.199219C6.37867 0.199219 0.200195 6.37769 0.200195 13.9992C0.200195 21.6207 6.37867 27.7992 14.0002 27.7992Z" fill="url(#paint0_linear_2408_51546)"/>
<path d="M11.4699 20.3234C11.0228 20.3234 11.0988 20.1546 10.9446 19.7289L9.62988 15.4021L19.7499 9.39844" fill="#C8DAEA"/>
<path d="M11.4697 20.3229C11.8147 20.3229 11.9672 20.1651 12.1597 19.9779L13.9997 18.1887L11.7046 16.8047" fill="#A9C9DD"/>
<path d="M11.7051 16.8064L17.2665 20.9153C17.9011 21.2654 18.3592 21.0841 18.5173 20.3261L20.781 9.65831C21.0128 8.72909 20.4268 8.30763 19.8197 8.58327L6.52685 13.7089C5.61949 14.0729 5.62478 14.5791 6.36145 14.8047L9.7727 15.8694L17.6701 10.887C18.0429 10.6609 18.3851 10.7824 18.1042 11.0317" fill="url(#paint1_linear_2408_51546)"/>
<defs>
<linearGradient id="paint0_linear_2408_51546" x1="10.5516" y1="1.35014" x2="3.65157" y2="17.4492" gradientUnits="userSpaceOnUse">
<stop stop-color="#37AEE2"/>
<stop offset="1" stop-color="#1E96C8"/>
</linearGradient>
<linearGradient id="paint1_linear_2408_51546" x1="12.273" y1="14.847" x2="13.7475" y2="19.6165" gradientUnits="userSpaceOnUse">
<stop stop-color="#EFF7FC"/>
<stop offset="1" stop-color="white"/>
</linearGradient>
</defs>
</svg>
