<svg width="39" height="29" viewBox="0 0 39 29" fill="none" xmlns="http://www.w3.org/2000/svg">
<path fill-rule="evenodd" clip-rule="evenodd" d="M8.27661 0.25H19.1507C23.6979 0.25 26.8727 3.38345 26.8727 7.87241V20.7892C26.8727 25.2782 23.6998 28.4116 19.1507 28.4116H8.27661C3.72944 28.4116 0.554688 25.2782 0.554688 20.7892V7.87241C0.554688 3.38533 3.72944 0.25 8.27661 0.25ZM34.2698 4.71643C35.094 4.29776 36.0609 4.34095 36.8475 4.83659C37.6342 5.33036 38.1035 6.18835 38.1035 7.12707V21.5364C38.1035 22.4752 37.6342 23.3331 36.8475 23.8269C36.4651 24.0696 36.0259 24.2082 35.5734 24.2289C35.121 24.2497 34.6709 24.1519 34.2679 23.9452L31.4874 22.5409C30.983 22.2846 30.5598 21.893 30.2654 21.4099C29.9709 20.9268 29.8168 20.3712 29.8202 19.8054V8.85432C29.8202 7.68842 30.4586 6.63893 31.4874 6.12076L34.2698 4.71643Z" fill="white"/>
</svg>
