<?xml version="1.0" encoding="UTF-8"?>
<svg id="Layer_2" data-name="Layer 2" xmlns="http://www.w3.org/2000/svg" viewBox="0 0 398.53 438.74">
  <defs>
    <style>
      .cls-1 {
        fill: #4583c4;
      }

      .cls-2 {
        fill: #4ac7ed;
      }
    </style>
  </defs>
  <g id="Layer_1-2" data-name="Layer 1">
    <g>
      <path class="cls-1" d="m162.93,287.55c.95-1.83,2.6-3.53,3.87-5.14,3.67-4.66,7.53-9.17,11.53-13.55,6.03-6.61,12.36-12.94,18.96-18.98,6.62-6.07,13.51-11.85,20.64-17.31-1.58-4.22-3.58-8.25-5.63-11.86-18.12,17.64-35.15,39.57-49.37,66.84Zm232.5-128.6c-6.43-9.28-15.11-15.37-22.37-19.18-9.16-4.82-17.4-11.26-23.97-19.26-51-61.97-138.04-64.31-198.47-13.75-21.28-3.53-56.08-5.08-93.5,10.62-4.65,1.95-4.57,8.56.12,10.41,13.47,5.31,34.29,16.29,47.95,36.79-30.78,61.36-24.66,131.19-18.07,168.03,2.58,14.44-2.2,29.26-12.84,39.35-13.64,12.92-27.65,35.18-14.66,66.79,0,0,4.98-16.47,15.71-19.78,10.46-3.23,21.29-4.73,31.46-8.97,4.27-1.78,8.51-3.93,12.05-6.96,1.19-1.01,8.19-8.15,6.55-10.06,6.05,7.04,16.78,7.02,25.23,6.1,10.69-1.17,20.68-5.64,31.26-6.76,8.94-.95,16.93,3.67,23.11,9.83-3.02-29.17-19.88-42.83-35.55-49.22-27.4-11.17-36.63-45.37-18.01-68.37.43-.53.87-1.06,1.31-1.59-45.31,31.19-33.2,80.9-33.21,80.9-30-65.5-14.61-151.12,29.81-206.5,21.47-26.78,50.93-45.9,84.6-54.64,55.47-14.4,55.57,23.08,96.31,39.21,15.66,6.2-1.14,13.39-13.43,17.22-17.05,5.31-36.69,13.26-56.79,25.13,2.52,6.72,4.07,13.04,4.83,18.95,10.23-5.07,20.78-9.5,31.59-13.18,15.06-5.13,30.61-8.83,46.37-10.99,15.09-2.06,30.23-2.25,45.43-1.93,1.95.04,3.96-.09,5.76-.86,6.84-2.91,4.77-12.52,1.43-17.33Z"/>
      <path class="cls-1" d="m397.97,184.27c-.16.07-.32.15-.49.22-2.53,1.07-5.27,1.57-8.63,1.57-.27,0-.54,0-.8,0-1.91-.04-3.73-.07-5.47-.09.31,4.39.48,8.83.48,13.3,0,97.97-76.66,178.03-173.26,183.49,1.62,4.59,2.88,9.66,3.66,15.27,103.43-7.28,185.08-93.48,185.08-198.76,0-5.04-.19-10.04-.56-15Z"/>
      <path class="cls-2" d="m199.26,15.47c75.49,0,140.34,45.51,168.63,110.59,2.9,2.13,6,4.07,9.32,5.81,4.49,2.36,8.59,5.03,12.31,7.98C364.24,58.82,288.62,0,199.26,0,89.21,0,0,89.21,0,199.26c0,63.27,29.49,119.65,75.47,156.15,2.56-5.33,3.73-11.29,3.33-17.34-38.8-33.7-63.33-83.39-63.33-138.81C15.47,97.76,97.76,15.47,199.26,15.47Z"/>
      <path class="cls-1" d="m211.19,204.93c9.61,13.02,26.13,40.56,12.64,61.65,0,0,52.33-26.87,26.98-84.47-2.01-4.56-7.55-6.36-11.87-3.89l-25.16,14.39c-4.38,2.5-5.58,8.27-2.58,12.33Z"/>
    </g>
  </g>
</svg>