<?xml version="1.0" encoding="UTF-8"?>
<svg id="Layer_2" data-name="Layer 2" xmlns="http://www.w3.org/2000/svg" viewBox="0 0 271.97 310.69">
  <defs>
    <style>
      .cls-1 {
        fill: #fff;
      }

      .cls-2 {
        fill: #4583c4;
      }

      .cls-3 {
        fill: #4ac7ed;
      }
    </style>
  </defs>
  <g id="Layer_1-2" data-name="Layer 1">
    <g>
      <circle class="cls-1" cx="132.98" cy="132.98" r="132.98"/>
      <g>
        <g>
          <path class="cls-2" d="m37.22,293.96c-9.27-22.56.58-38.47,10.48-47.85,6.36-6.03,9.23-14.82,7.67-23.53-4.34-24.29-8.54-70.9,11.53-112.3-8.46-11.84-20.68-18.48-29.6-21.99-2.57-1.01-4.24-3.45-4.27-6.21-.03-2.76,1.59-5.23,4.13-6.29,14.03-5.88,29-8.87,44.51-8.87,6.08,0,12.17.46,18.12,1.38,18.61-15.18,41.37-23.52,64.26-23.52,27.92,0,53.23,12.06,71.25,33.96,4.01,4.87,9.08,8.94,15.06,12.09,6.74,3.55,12.12,8.17,15.98,13.74,1.9,2.73,3.32,7.19,2.23,10.96-.68,2.36-2.23,4.11-4.47,5.06-1.72.73-3.45.81-4.6.81h-.47c-2.61-.06-4.95-.09-7.16-.09-8.76,0-15.96.43-22.67,1.34-10.25,1.4-20.46,3.82-30.36,7.19-6.94,2.37-13.9,5.27-20.7,8.64l-3.77,1.87-.54-4.17c-.5-3.88-1.53-7.91-3.05-11.96l-.89-2.36,2.17-1.28c11.99-7.08,24.94-12.81,38.5-17.04,6.76-2.11,9.73-3.92,10.74-4.83-.36-.25-.97-.59-1.99-1-10.4-4.11-17.03-10.22-22.89-15.61-7.57-6.97-13.55-12.47-25.37-12.47-4.15,0-8.77.67-14.1,2.06-21.83,5.67-40.79,17.91-54.82,35.41-25.84,32.22-35.48,78.84-25.61,117.15,1.66-11.68,7.38-26.43,23.84-37.76l13.62-9.37c7.42-11.73,16.03-22.39,25.71-31.82l2.78-2.71,1.92,3.37c1.62,2.85,2.95,5.66,3.96,8.34l.78,2.08-1.76,1.35c-4.67,3.58-9.24,7.41-13.56,11.37-4.38,4.02-8.57,8.21-12.45,12.47-2.8,3.07-5.27,5.97-7.54,8.87-.25.32-.53.65-.81.98-.57.68-1.16,1.38-1.47,1.98l-5.32-2.77c.96-1.84,1.95-3.67,2.96-5.46l-4.81,5.72c-.29.34-.57.68-.84,1.02-5.24,6.47-7.06,14.81-4.98,22.88,2.12,8.23,7.87,14.8,15.8,18.03,10.43,4.25,23.33,13.83,25.55,35.29l.87,8.39-5.97-5.95c-2.64-2.63-6.81-5.76-11.73-5.76-.41,0-.83.02-1.24.07-3.29.35-6.52,1.23-9.94,2.16-3.49.95-7.1,1.93-10.89,2.35-1.87.2-3.53.3-5.07.3-4.34,0-7.94-.82-10.78-2.46-1.61,2.22-3.68,4.06-3.71,4.09-2.96,2.53-6.46,4.14-8.83,5.13-4.39,1.83-8.92,2.93-13.3,3.99-2.63.64-5.35,1.29-7.94,2.09-4.59,1.42-7.68,8.56-8.49,11.19l-2.46,8.02-3.19-7.75Z"/>
          <path class="cls-1" d="m164.07,47.78c25.59,0,50.71,10.73,68.93,32.86,4.39,5.33,9.88,9.63,15.98,12.84,4.84,2.55,10.62,6.6,14.91,12.79,2.22,3.21,3.61,9.61-.95,11.55-1.07.46-2.26.57-3.43.57-.14,0-.27,0-.41,0-2.41-.05-4.81-.08-7.22-.08-7.71,0-15.4.32-23.07,1.37-10.51,1.43-20.88,3.9-30.92,7.32-7.21,2.46-14.24,5.41-21.06,8.79-.51-3.94-1.54-8.16-3.22-12.63,13.4-7.91,26.5-13.22,37.86-16.76,8.2-2.55,19.4-7.35,8.95-11.48-22.93-9.07-26.55-28.29-49.36-28.29-4.21,0-9.09.66-14.85,2.15-22.45,5.83-42.09,18.58-56.41,36.43-29.61,36.93-39.87,94.01-19.87,137.68,0,0-8.07-33.15,22.14-53.94-.3.36-.59.71-.88,1.06-12.41,15.33-6.26,38.14,12.01,45.58,10.45,4.26,21.69,13.37,23.7,32.82-3.76-3.75-8.52-6.64-13.85-6.64-.51,0-1.03.03-1.56.08-7.05.75-13.72,3.73-20.84,4.51-1.5.16-3.12.28-4.75.28-4.48,0-9.11-.91-12.07-4.35,1.1,1.27-3.57,6.03-4.36,6.71-2.36,2.02-5.19,3.45-8.03,4.64-6.78,2.83-14,3.83-20.97,5.98-7.15,2.21-10.47,13.19-10.47,13.19-8.66-21.08.68-35.92,9.77-44.53,7.1-6.72,10.28-16.61,8.56-26.23-4.39-24.56-8.48-71.12,12.05-112.03-9.1-13.67-22.99-20.99-31.97-24.53-3.13-1.23-3.18-5.64-.08-6.94,15.76-6.61,30.82-8.63,43.35-8.63,7.31,0,13.76.69,18.99,1.56,18.7-15.65,41.22-23.7,63.39-23.7m-22.27,99.67c1.37,2.41,2.7,5.1,3.76,7.91-4.75,3.64-9.35,7.49-13.76,11.54-4.4,4.03-8.62,8.25-12.64,12.66-2.66,2.92-5.24,5.92-7.69,9.03-.84,1.07-1.94,2.21-2.58,3.43,9.48-18.19,20.83-32.81,32.91-44.57m22.27-105.67c-23.15,0-46.17,8.28-65.12,23.36-5.68-.81-11.48-1.22-17.26-1.22-15.91,0-31.28,3.06-45.67,9.1-3.67,1.54-6.02,5.11-5.97,9.09.04,3.99,2.47,7.5,6.17,8.96,8.17,3.22,19.23,9.17,27.21,19.54-19.54,41.74-15.35,88.17-11,112.49,1.38,7.71-1.16,15.49-6.78,20.82-14.96,14.17-18.93,32.34-11.2,51.17l6.41,15.59,4.88-16.14c.99-3.19,3.75-8.34,6.5-9.19,2.51-.77,5.06-1.39,7.77-2.05,4.49-1.09,9.14-2.21,13.75-4.13,2.56-1.07,6.34-2.81,9.62-5.62.11-.09,1.29-1.11,2.62-2.62,2.83,1.14,6.14,1.71,9.92,1.71,1.66,0,3.42-.1,5.4-.32,4.03-.44,7.75-1.45,11.35-2.43,3.3-.9,6.42-1.75,9.47-2.07.31-.03.62-.05.93-.05,3.89,0,7.38,2.66,9.61,4.89l11.94,11.9-1.74-16.77c-2.38-22.94-16.22-33.19-27.41-37.75-7.04-2.87-12.15-8.7-14.02-16-1.83-7.14-.23-14.52,4.41-20.25.26-.32.53-.65.81-.98l1.14-1.36,1.07.56,5.32,2.77c.16-.3.71-.96,1.11-1.43.3-.36.59-.71.87-1.06,2.22-2.83,4.64-5.67,7.4-8.7,3.82-4.19,7.95-8.32,12.26-12.28,4.26-3.91,8.76-7.67,13.36-11.2l3.53-2.7-1.56-4.16c-1.06-2.83-2.46-5.78-4.16-8.77l-3.84-6.75-5.56,5.41c-9.71,9.45-18.35,20.12-25.82,31.84l-13.11,9.02c-11.64,8.01-18.17,17.67-21.73,26.89-4.9-34.67,5.04-73.87,27.55-101.93,13.62-16.99,32.03-28.88,53.23-34.38,5.08-1.32,9.45-1.96,13.35-1.96,10.64,0,15.97,4.9,23.34,11.68,5.35,4.93,11.34,10.44,20.22,14.63-1.29.52-2.91,1.1-4.93,1.74-13.78,4.29-26.94,10.12-39.13,17.32l-4.34,2.56,1.77,4.71c1.44,3.84,2.42,7.64,2.89,11.29l1.08,8.34,7.53-3.73c6.67-3.31,13.52-6.16,20.33-8.49,9.71-3.31,19.74-5.69,29.79-7.06,6.57-.9,13.64-1.32,22.26-1.32,2.19,0,4.51.03,7.09.08.18,0,.36,0,.53,0,2.25,0,4.09-.33,5.78-1.05,3.06-1.3,5.26-3.78,6.18-6.99,1.46-5.05-.51-10.43-2.64-13.51-4.14-5.97-9.88-10.91-17.05-14.68-5.63-2.96-10.39-6.78-14.14-11.34-18.6-22.6-44.73-35.05-73.57-35.05h0Z"/>
        </g>
        <path class="cls-2" d="m265.59,123.15c-.11.05-.21.1-.33.15-1.68.72-3.51,1.05-5.75,1.05-.18,0-.36,0-.53,0-1.28-.03-2.49-.05-3.65-.06.21,2.93.32,5.88.32,8.87,0,65.32-51.11,118.7-115.52,122.34,1.08,3.06,1.92,6.44,2.44,10.18,68.96-4.85,123.4-62.33,123.4-132.52,0-3.36-.13-6.7-.37-10Z"/>
        <path class="cls-3" d="m133.11,10.61c50.33,0,93.57,30.34,112.43,73.73,1.93,1.42,4,2.71,6.21,3.87,2.99,1.57,5.73,3.35,8.21,5.32C243.11,39.51,192.69.29,133.11.29,59.73.29.25,59.78.25,133.15c0,42.18,19.66,79.78,50.32,104.11,1.71-3.55,2.49-7.53,2.22-11.56-25.87-22.47-42.23-55.6-42.23-92.55,0-67.68,54.86-122.54,122.54-122.54Z"/>
        <path class="cls-2" d="m141.06,136.93c6.41,8.68,17.42,27.04,8.42,41.1,0,0,34.89-17.91,17.99-56.32-1.34-3.04-5.03-4.24-7.92-2.59l-16.78,9.59c-2.92,1.67-3.72,5.51-1.72,8.22Z"/>
      </g>
    </g>
  </g>
</svg>