<svg width="20" height="20" viewBox="0 0 20 20" fill="none" xmlns="http://www.w3.org/2000/svg">
<path d="M18 9.00001C17.7554 7.24023 16.9391 5.60967 15.6766 4.35951C14.4142 3.10934 12.7758 2.30893 11.0137 2.08156C9.25159 1.8542 7.46362 2.21249 5.9252 3.10126C4.38678 3.99002 3.18325 5.35995 2.5 7.00001M2 3.00001V7.00001H6" stroke="#4AC7ED" stroke-width="2" stroke-linecap="round" stroke-linejoin="round"/>
<path d="M2 11C2.24456 12.7598 3.06093 14.3903 4.32336 15.6405C5.58579 16.8907 7.22424 17.6911 8.98633 17.9184C10.7484 18.1458 12.5364 17.7875 14.0748 16.8988C15.6132 16.01 16.8168 14.6401 17.5 13M18 17V13H14" stroke="#4AC7ED" stroke-width="2" stroke-linecap="round" stroke-linejoin="round"/>
</svg>
